<svg xmlns="http://www.w3.org/2000/svg" fill="none" width="959" height="275" viewBox="0 0 959 275">
  <path fill="#FDFFE6" d="M137 0H0v24.905h137zm0 49.821H0v24.906h137zm0 49.811H0v24.905h137zm0 49.821H0v24.905h137zm0 49.82H0v24.906h137zm0 49.917H0v24.906h137zM274 24.905H137v24.906h137zm0 49.822H137v24.905h137zm0 49.82H137v24.906h137zm0 49.822H137v24.905h137zm0 49.81H137v24.905h137zM411 99.632H274v24.905h137zm0 49.821H274v24.905h137zm0 49.82H274v24.906h137zm0 49.821H274V274h137zm137-74.725H411v24.905h137zm0 49.81H411v24.905h137zm137-24.906H548v24.906h137zm0 49.821H548V274h137zm137-24.915H685v24.905h137zm137 24.905H822v24.905h137z"/>
  <path fill="#00382D" d="M548 174.369H137v99.727h411z"/>
  <path fill="#FDFFE6" d="M218.438 238.186v-23.091h8.071q3.705 0 6.433 1.423 2.728 1.422 4.253 4.036 1.522 2.613 1.522 6.12t-1.522 6.087-4.253 4.003c-1.819.948-3.966 1.422-6.433 1.422zm4.664-3.969h3.242q3.638 0 5.606-1.985 1.969-1.986 1.97-5.558-.001-3.573-1.97-5.624-1.971-2.05-5.606-2.051h-3.242zm26.135 4.201q-2.415 0-4.268-1.206-1.852-1.207-2.911-3.341-1.059-2.133-1.059-4.845c0-1.808.353-3.451 1.059-4.863q1.059-2.116 2.911-3.323 1.853-1.208 4.268-1.209 2.183 0 3.804 1.125 1.622 1.125 2.349 3.11v-4.003h4.697v18.327h-2.249q-1.124.001-1.787-.676-.661-.677-.661-1.805v-1.555q-.728 2.018-2.349 3.143t-3.804 1.125zm1.323-4.069q1.29 0 2.382-.629 1.09-.628 1.772-1.819.677-1.192.676-2.878c0-1.125-.228-2.118-.676-2.912q-.678-1.189-1.772-1.804a4.8 4.8 0 0 0-2.382-.614c-.86 0-1.595.206-2.334.614q-1.108.613-1.787 1.804-.677 1.191-.676 2.912c0 1.147.224 2.084.676 2.878q.679 1.19 1.787 1.819a4.66 4.66 0 0 0 2.334.629m14.06 3.837v-18.327h4.664v3.871a5.9 5.9 0 0 1 1.323-2.151 6.5 6.5 0 0 1 2.085-1.441 6.15 6.15 0 0 1 2.448-.514q2.082 0 3.657.926c1.048.618 1.856 1.503 2.433 2.665.574 1.158.861 2.555.861 4.183v10.785h-4.632v-9.925q0-2.182-1.125-3.422t-2.944-1.242q-1.224-.001-2.15.643-.928.647-1.441 1.768-.512 1.125-.511 2.58v9.594h-4.665zm28.582.232q-1.985 0-3.573-.644t-2.646-1.801a6.64 6.64 0 0 1-1.489-2.58l4.367-.993a3.08 3.08 0 0 0 1.191 1.739q.893.644 2.084.643 1.388 0 2.099-.529.712-.53.713-1.323c0-.53-.25-.978-.746-1.272q-.744-.446-1.919-.728t-2.496-.628a13.7 13.7 0 0 1-2.514-.927 5.1 5.1 0 0 1-1.933-1.588c-.497-.672-.746-1.573-.746-2.694q-.002-1.488.878-2.746.875-1.256 2.496-1.985 1.622-.727 3.87-.727 1.952 0 3.441.595 1.488.597 2.448 1.706a6.1 6.1 0 0 1 1.323 2.595l-4.234 1.124q-.3-1.155-1.04-1.771-.747-.613-2.066-.614c-.879 0-1.478.162-1.919.478q-.662.48-.662 1.275c0 .529.25.974.747 1.272q.744.446 1.918.761 1.174.314 2.496.662a12.4 12.4 0 0 1 2.496.941 5.3 5.3 0 0 1 1.919 1.621q.743 1.025.742 2.712a4.56 4.56 0 0 1-.893 2.728q-.893 1.242-2.514 1.97t-3.838.728m10.884-.232v-24.48h4.665v13.563a8.9 8.9 0 0 0 3.143-1.305 9.5 9.5 0 0 0 2.58-2.529q1.092-1.554 1.522-3.573h4.962a13.1 13.1 0 0 1-1.702 3.937 15 15 0 0 1-2.727 3.176q-1.555 1.356-3.242 2.018 1.29.365 2.58 1.242a13.6 13.6 0 0 1 2.415 2.118q1.125 1.24 1.919 2.727a10 10 0 0 1 1.058 3.11h-4.962a8.8 8.8 0 0 0-1.092-2.761 10.4 10.4 0 0 0-1.771-2.183 9.2 9.2 0 0 0-2.217-1.537 7.2 7.2 0 0 0-2.466-.727v7.211h-4.665zm45.525-9.02a5.9 5.9 0 0 0-1.885-2.084 5 5 0 0 0-1.89-.783 7 7 0 0 0 1.294-.555 5.15 5.15 0 0 0 1.919-1.853q.728-1.19.728-2.845c0-1.102-.294-2.165-.875-3.058q-.877-1.34-2.547-2.117-1.672-.777-4.088-.776h-9.561v23.091h9.958c1.61 0 2.981-.264 4.121-.794q1.703-.794 2.613-2.216t.908-3.242q0-1.488-.695-2.761zm-12.24-10.307h4.201q1.62 0 2.529.761.91.76.908 2.117-.002 1.423-.908 2.151c-.606.485-1.452.727-2.529.727h-4.201zm7.278 14.736q-.927.78-2.614.78h-4.664v-6.187h4.565q1.654 0 2.647.842.992.843.992 2.33c0 .993-.309 1.717-.926 2.235m17.868 4.815q-2.648 0-4.749-1.158t-3.342-3.275-1.242-4.995 1.257-4.977a8.6 8.6 0 0 1 3.407-3.242q2.151-1.142 4.797-1.143 2.646 0 4.779 1.143a8.63 8.63 0 0 1 3.389 3.242q1.257 2.1 1.257 4.977-.001 2.879-1.272 4.995a8.76 8.76 0 0 1-3.44 3.275q-2.168 1.158-4.849 1.158zm0-4.069q1.224.002 2.315-.58 1.092-.58 1.787-1.787t.695-2.992q-.002-1.786-.677-2.977-.678-1.19-1.753-1.768a4.8 4.8 0 0 0-2.301-.581 4.6 4.6 0 0 0-2.264.581q-1.043.58-1.706 1.768-.662 1.19-.662 2.977 0 1.789.629 2.992c.419.805.978 1.401 1.669 1.787q1.04.579 2.268.58m12.567-1.091v-19.552h4.665v19.254q0 .728.43 1.092.43.363 1.025.363.43 0 .728-.132l.86 3.54q-1.158.595-2.646.595a5.9 5.9 0 0 1-2.397-.511q-1.174-.512-1.919-1.654-.743-1.14-.742-2.995zm13.637-15.615q-1.389.001-2.316-.842a2.72 2.72 0 0 1-.926-2.099q0-1.256.926-2.117.927-.86 2.316-.86t2.316.86.926 2.117-.926 2.099q-.927.843-2.316.842m-2.382 20.544v-18.328h4.698v18.328zm32.016-4.929v-19.552h4.665v19.254q0 .728.43 1.092.43.363 1.025.363.43 0 .728-.132l.86 3.54q-1.158.595-2.646.595a5.95 5.95 0 0 1-2.401-.511q-1.174-.512-1.918-1.654-.746-1.14-.747-2.995zm17.6 5.16q-2.415.001-4.268-1.205-1.852-1.208-2.911-3.341t-1.059-4.845c0-1.809.353-3.452 1.059-4.863q1.059-2.117 2.911-3.323 1.853-1.208 4.268-1.209 2.183 0 3.804 1.124t2.349 3.11v-4.003h4.697v18.328h-2.249q-1.125 0-1.786-.677-.662-.676-.662-1.805v-1.554q-.728 2.017-2.349 3.142t-3.804 1.125zm1.323-4.069q1.29 0 2.382-.628 1.091-.629 1.768-1.82.679-1.19.68-2.878c0-1.125-.228-2.117-.68-2.911s-1.04-1.393-1.768-1.805a4.8 4.8 0 0 0-2.382-.614q-1.223.001-2.331.614t-1.786 1.805q-.677 1.19-.676 2.911c0 1.147.224 2.084.676 2.878q.678 1.191 1.786 1.82a4.65 4.65 0 0 0 2.331.628m4.466-19.882q0 1.753-1.143 2.779t-2.761 1.026c-1.077 0-1.97-.342-2.727-1.026q-1.142-1.026-1.143-2.779 0-1.753 1.143-2.779 1.14-1.025 2.727-1.025c1.059 0 2.004.342 2.761 1.025q1.142 1.026 1.143 2.779m-2.316-.033q0-.728-.463-1.191a1.53 1.53 0 0 0-1.125-.463c-.441 0-.79.154-1.106.463q-.481.463-.482 1.191-.002.727.482 1.191.479.463 1.106.463.661 0 1.125-.463t.463-1.191m11.542 23.753v-18.327h4.665v3.87a5.85 5.85 0 0 1 1.323-2.15 6.4 6.4 0 0 1 2.084-1.441 6.1 6.1 0 0 1 2.448-.515q2.083 0 3.654.927c1.048.617 1.856 1.503 2.433 2.665q.86 1.738.86 4.183v10.784h-4.631v-9.924q0-2.183-1.125-3.422-1.125-1.242-2.944-1.243-1.224-.001-2.15.644-.928.646-1.441 1.768-.514 1.124-.515 2.58v9.594h-4.664zm-42.892 2.955h-5.701c-1.706 0-2.908-.698-2.908-2.055 0-.599.309-1.18.721-1.617 1.297.632 2.742.952 4.341.952q2.677 0 4.848-1.158a8.77 8.77 0 0 0 3.441-3.275q1.272-2.117 1.271-4.995 0-2.878-1.257-4.977a9 9 0 0 0-.426-.644c1.455-.918 2.227-2.091 2.227-3.591 0-.658-.154-1.397-.466-2.132h-4.187c.272.622.39 1.125.39 1.629 0 .595-.203 1.165-.647 1.657q-.138-.084-.276-.158-2.136-1.141-4.779-1.143c-1.76 0-3.363.383-4.796 1.143a8.6 8.6 0 0 0-3.408 3.242q-1.257 2.1-1.257 4.977-.002 2.878 1.242 4.996.32.541.695 1.022c-1.323 1.088-2.474 2.731-2.474 4.973 0 3.569 2.794 5.389 6.514 5.389h4.304c2.948 0 3.646 1.279 3.646 2.521 0 .893-.426 1.823-1.047 2.445l4.539 1.201c1.32-1.473 2.018-3.297 2.018-5.002 0-2.871-2.095-5.393-6.553-5.393zm-7.451-15.129q.663-1.19 1.706-1.768a4.6 4.6 0 0 1 2.264-.581c.816 0 1.58.195 2.301.581q1.075.58 1.753 1.768.678 1.19.677 2.977 0 1.789-.695 2.992-.695 1.208-1.787 1.787a4.9 4.9 0 0 1-2.315.58q-1.223.002-2.268-.58-1.045-.58-1.669-1.787-.629-1.207-.629-2.992 0-1.786.662-2.977"/>
</svg>
