<svg width="150" height="75" viewBox="0 0 150 75" fill="none" xmlns="http://www.w3.org/2000/svg">
<path d="M0 27.0538V1.53516H8.92055C11.6503 1.53516 14.0186 2.05918 16.0294 3.10722C18.0401 4.15526 19.6041 5.64202 20.7293 7.56749C21.8505 9.49297 22.411 11.7475 22.411 14.331C22.411 16.9146 21.8505 19.1569 20.7293 21.058C19.6081 22.9591 18.0401 24.4337 16.0294 25.4817C14.0186 26.5297 11.6463 27.0538 8.92055 27.0538H0ZM5.15491 22.6666H8.73775C11.4188 22.6666 13.4824 21.9354 14.9326 20.473C16.3828 19.0107 17.1099 16.9633 17.1099 14.331C17.1099 11.6987 16.3828 9.62702 14.9326 8.11589C13.4824 6.60476 11.4147 5.84919 8.73775 5.84919H5.15491V22.6666Z" fill="#FDFFE6"/>
<path d="M34.037 27.3096C32.2578 27.3096 30.6857 26.8669 29.3208 25.9773C27.9559 25.0876 26.8835 23.8568 26.1036 22.2847C25.3236 20.7127 24.9337 18.9294 24.9337 16.9308C24.9337 14.9322 25.3236 13.1164 26.1036 11.5565C26.8835 9.99664 27.9559 8.77393 29.3208 7.88431C30.6857 6.99469 32.2578 6.54785 34.037 6.54785C35.6456 6.54785 37.0471 6.96219 38.2414 7.79088C39.4356 8.61956 40.3009 9.7651 40.8371 11.2275V6.80377H46.0285V27.0578H43.5425C42.7138 27.0578 42.0557 26.81 41.5683 26.3104C41.0808 25.8107 40.8371 25.1486 40.8371 24.3158V22.5975C40.3009 24.0843 39.4356 25.242 38.2414 26.0707C37.0471 26.8994 35.6456 27.3137 34.037 27.3137V27.3096ZM35.4994 22.8128C36.4499 22.8128 37.3274 22.5813 38.1317 22.1182C38.936 21.6551 39.5859 20.9848 40.0896 20.1074C40.5893 19.23 40.8371 18.1697 40.8371 16.9267C40.8371 15.6837 40.5852 14.5869 40.0896 13.7095C39.59 12.832 38.94 12.1699 38.1317 11.7149C37.3274 11.264 36.4499 11.0366 35.4994 11.0366C34.5488 11.0366 33.7364 11.264 32.9199 11.7149C32.1034 12.1658 31.4453 12.832 30.9457 13.7095C30.446 14.5869 30.1982 15.6593 30.1982 16.9267C30.1982 18.1941 30.446 19.23 30.9457 20.1074C31.4453 20.9848 32.1034 21.6551 32.9199 22.1182C33.7364 22.5813 34.5935 22.8128 35.4994 22.8128Z" fill="#FDFFE6"/>
<path d="M51.0372 27.054V6.80002H56.1921V11.0775C56.5089 10.1757 56.9964 9.38356 57.6545 8.70112C58.3125 8.01867 59.0803 7.49059 59.9577 7.10874C60.8352 6.73096 61.737 6.54004 62.6631 6.54004C64.1986 6.54004 65.5432 6.88126 66.705 7.56371C67.8627 8.24615 68.7564 9.22514 69.3942 10.5088C70.0279 11.7884 70.3447 13.332 70.3447 15.1315V27.05H65.2264V16.0821C65.2264 14.4735 64.812 13.2142 63.9833 12.3002C63.1547 11.3862 62.0701 10.9272 60.7295 10.9272C59.8277 10.9272 59.0356 11.1628 58.3532 11.6381C57.6707 12.1133 57.1386 12.7674 56.7608 13.592C56.383 14.4207 56.1962 15.3712 56.1962 16.4436V27.0459H51.0412L51.0372 27.054Z" fill="#FDFFE6"/>
<path d="M82.6247 27.3105C81.1623 27.3105 79.8461 27.0749 78.6762 26.5996C77.5063 26.1243 76.5314 25.4622 75.7515 24.6091C74.9715 23.7561 74.4231 22.8055 74.1063 21.7575L78.9321 20.6607C79.1515 21.465 79.5902 22.1068 80.2483 22.5821C80.9064 23.0574 81.6741 23.293 82.5516 23.293C83.5752 23.293 84.347 23.098 84.8711 22.708C85.3951 22.3181 85.6591 21.8306 85.6591 21.2456C85.6591 20.6607 85.3829 20.1651 84.8345 19.8401C84.2861 19.5111 83.5793 19.243 82.714 19.0358C81.8488 18.8286 80.9267 18.5971 79.9558 18.3412C78.9809 18.0853 78.0547 17.744 77.1773 17.3175C76.2999 16.891 75.5849 16.306 75.0406 15.5626C74.4922 14.8193 74.216 13.824 74.216 12.5851C74.216 11.4883 74.5369 10.4768 75.1868 9.55062C75.8327 8.62445 76.7508 7.89325 77.945 7.35705C79.1393 6.82084 80.5651 6.55273 82.2225 6.55273C83.6605 6.55273 84.9279 6.77209 86.0247 7.21081C87.1215 7.64952 88.0233 8.27916 88.7301 9.09566C89.4369 9.91216 89.9244 10.8668 90.1925 11.9636L85.5129 13.2066C85.2935 12.3535 84.9076 11.7036 84.3633 11.2486C83.8149 10.7977 83.0512 10.5702 82.0803 10.5702C81.1095 10.5702 80.4473 10.749 79.9599 11.0983C79.4724 11.4517 79.2287 11.9229 79.2287 12.5079C79.2287 13.0928 79.5049 13.5844 80.0533 13.9134C80.6017 14.2424 81.3085 14.5227 82.1738 14.7543C83.039 14.9858 83.9571 15.2295 84.932 15.4855C85.9069 15.7414 86.829 16.0867 87.6902 16.5254C88.5514 16.9641 89.2623 17.5612 89.8107 18.3168C90.3591 19.0724 90.6312 20.0717 90.6312 21.3147C90.6312 22.4115 90.3022 23.4148 89.6441 24.3288C88.986 25.2428 88.0599 25.97 86.8656 26.5062C85.6713 27.0424 84.2577 27.3105 82.6247 27.3105Z" fill="#FDFFE6"/>
<path d="M94.6528 27.0541V0H99.8077V14.9894C101.026 14.7457 102.184 14.2664 103.281 13.5474C104.378 12.8284 105.328 11.8981 106.133 10.7526C106.937 9.60705 107.497 8.29091 107.814 6.80415H113.298C112.908 8.36403 112.279 9.81423 111.417 11.1547C110.552 12.4953 109.545 13.6652 108.403 14.6645C107.258 15.6638 106.063 16.4071 104.82 16.8946C105.771 17.1627 106.722 17.6217 107.672 18.2676C108.623 18.9135 109.512 19.6934 110.341 20.6074C111.17 21.5214 111.876 22.5248 112.461 23.6216C113.046 24.7184 113.436 25.8639 113.631 27.0582H108.147C107.904 25.937 107.501 24.9215 106.941 24.0075C106.38 23.0935 105.726 22.2892 104.983 21.5945C104.24 20.8999 103.423 20.3353 102.533 19.8966C101.644 19.4578 100.738 19.1897 99.8077 19.0922V27.0622H94.6528V27.0541Z" fill="#FDFFE6"/>
<path d="M18.682 49.9973C18.1701 49.0589 17.4755 48.2912 16.5981 47.694C15.9603 47.2594 15.2616 46.971 14.5101 46.8288C15.0138 46.6704 15.4891 46.4632 15.94 46.2154C16.8174 45.7279 17.5242 45.0455 18.0604 44.1681C18.5967 43.2906 18.8648 42.2426 18.8648 41.0239C18.8648 39.8053 18.5398 38.6313 17.898 37.6442C17.2521 36.6571 16.3137 35.8772 15.0829 35.3044C13.852 34.7316 12.345 34.4473 10.5657 34.4473H0V59.9659H11.0044C12.7837 59.9659 14.2989 59.6734 15.5581 59.0884C16.8134 58.5035 17.7761 57.687 18.4464 56.6389C19.1166 55.5909 19.4497 54.3966 19.4497 53.0561C19.4497 51.9593 19.1938 50.9438 18.682 50.0054V49.9973ZM5.15491 38.6069H9.79798C10.9923 38.6069 11.9225 38.8872 12.5928 39.4478C13.263 40.0084 13.5961 40.7883 13.5961 41.7876C13.5961 42.8357 13.259 43.6278 12.5928 44.164C11.9225 44.7002 10.9882 44.9683 9.79798 44.9683H5.15491V38.6069ZM13.198 54.8922C12.5156 55.465 11.5528 55.7534 10.3098 55.7534H5.15491V48.9167H10.2001C11.4188 48.9167 12.3937 49.2255 13.1249 49.847C13.8561 50.4685 14.2217 51.3256 14.2217 52.4224C14.2217 53.5192 13.8805 54.3194 13.198 54.8922Z" fill="#FDFFE6"/>
<path d="M32.9442 60.2131C30.9944 60.2131 29.2436 59.7866 27.6959 58.9335C26.1482 58.0805 24.9174 56.874 24.0034 55.3141C23.0894 53.7543 22.6304 51.9141 22.6304 49.7936C22.6304 47.6732 23.0935 45.8411 24.0196 44.2934C24.9458 42.7458 26.201 41.5515 27.7853 40.7106C29.3695 39.8697 31.1366 39.4473 33.0864 39.4473C35.0363 39.4473 36.7952 39.8697 38.3673 40.7106C39.9393 41.5515 41.1864 42.7458 42.1126 44.2934C43.0388 45.8411 43.5018 47.6732 43.5018 49.7936C43.5018 51.9141 43.0306 53.7543 42.0963 55.3141C41.158 56.874 39.8906 58.0805 38.2941 58.9335C36.6977 59.7866 34.9103 60.2131 32.9361 60.2131H32.9442ZM32.9442 55.7163C33.846 55.7163 34.6991 55.5051 35.5034 55.0745C36.3077 54.6479 36.9658 53.9899 37.4776 53.1002C37.9895 52.2106 38.2454 51.1098 38.2454 49.7936C38.2454 48.4775 37.9935 47.3807 37.4979 46.5033C36.9983 45.6258 36.3524 44.9759 35.5603 44.5494C34.7682 44.1228 33.9192 43.9075 33.0174 43.9075C32.1156 43.9075 31.2828 44.1228 30.5151 44.5494C29.7473 44.9759 29.1177 45.6299 28.6302 46.5033C28.1427 47.3807 27.899 48.4775 27.899 49.7936C27.899 51.1098 28.1306 52.2147 28.5936 53.1002C29.0567 53.9899 29.6742 54.6479 30.4379 55.0745C31.2056 55.501 32.0384 55.7163 32.9442 55.7163Z" fill="#FDFFE6"/>
<path d="M46.8329 54.5101V32.9033H51.9878V54.181C51.9878 54.7172 52.1462 55.1194 52.4631 55.3875C52.7799 55.6556 53.1577 55.7896 53.5964 55.7896C53.9133 55.7896 54.1814 55.7409 54.4007 55.6434L55.3513 59.5553C54.4982 59.994 53.5233 60.2134 52.4265 60.2134C51.5247 60.2134 50.6392 60.0265 49.778 59.6487C48.9127 59.2709 48.2059 58.6616 47.6575 57.8207C47.1091 56.9799 46.837 55.879 46.837 54.5101H46.8329Z" fill="#FDFFE6"/>
<path d="M116.189 30.0742C117.21 30.0743 118.122 30.4111 118.852 31.085C119.586 31.7588 119.955 32.6721 119.955 33.8242C119.955 34.9763 119.586 35.8896 118.852 36.5635C118.118 37.2373 117.228 37.5741 116.189 37.5742C115.15 37.5742 114.288 37.2374 113.557 36.5635C112.823 35.8896 112.455 34.9763 112.455 33.8242C112.455 32.6721 112.823 31.7588 113.557 31.085C114.291 30.4111 115.168 30.0742 116.189 30.0742ZM116.189 32.1611C115.764 32.1611 115.427 32.3138 115.122 32.6182C114.813 32.9225 114.657 33.3137 114.657 33.792C114.657 34.2702 114.81 34.6615 115.122 34.9658C115.43 35.27 115.785 35.4219 116.189 35.4219C116.614 35.4218 116.976 35.2701 117.274 34.9658C117.572 34.6615 117.72 34.2701 117.72 33.792C117.72 33.3139 117.572 32.9225 117.274 32.6182C116.976 32.3139 116.614 32.1612 116.189 32.1611Z" fill="#FDFFE6"/>
<path d="M64.5141 36.5633C65.2482 35.8894 65.617 34.9764 65.617 33.8242C65.617 32.672 65.2482 31.759 64.5141 31.0851C63.7836 30.4112 62.8723 30.0742 61.851 30.0742C60.8297 30.0742 59.9538 30.4112 59.2198 31.0851C58.4858 31.759 58.117 32.672 58.117 33.8242C58.117 34.9764 58.4858 35.8894 59.2198 36.5633C59.9503 37.2373 60.812 37.5742 61.851 37.5742C62.89 37.5742 63.7801 37.2373 64.5141 36.5633Z" fill="#FDFFE6"/>
<path d="M59.2713 59.9581V39.7041H64.4627V59.9581H59.2713Z" fill="#FDFFE6"/>
<path d="M94.6528 54.5101V32.9033H99.8078V54.181C99.8078 54.7172 99.9662 55.1194 100.283 55.3875C100.6 55.6556 100.978 55.7896 101.416 55.7896C101.733 55.7896 102.001 55.7409 102.221 55.6434L103.171 59.5553C102.318 59.994 101.343 60.2134 100.246 60.2134C99.3447 60.2134 98.4591 60.0265 97.5939 59.6487C96.7286 59.2709 96.0218 58.6616 95.4734 57.8207C94.925 56.9799 94.6488 55.879 94.6488 54.5101H94.6528Z" fill="#FDFFE6"/>
<path d="M114.103 60.2139C112.323 60.2139 110.751 59.7712 109.386 58.8815C108.021 57.9919 106.949 56.7611 106.169 55.189C105.389 53.617 104.999 51.8337 104.999 49.8351C104.999 47.8365 105.389 46.0207 106.169 44.4608C106.949 42.9009 108.021 41.6782 109.386 40.7886C110.751 39.899 112.323 39.4521 114.103 39.4521C115.711 39.4521 117.113 39.8665 118.307 40.6952C119.501 41.5239 120.366 42.6694 120.903 44.1318V39.7081H126.094V59.9621H123.608C122.779 59.9621 122.121 59.7143 121.634 59.2147C121.146 58.715 120.903 58.0529 120.903 57.2201V55.5018C120.366 56.9886 119.501 58.1463 118.307 58.975C117.113 59.8037 115.711 60.218 114.103 60.218V60.2139ZM115.565 55.7171C116.515 55.7171 117.393 55.4856 118.197 55.0225C119.002 54.5594 119.651 53.8891 120.151 53.0117C120.651 52.1343 120.903 51.074 120.903 49.831C120.903 48.588 120.651 47.4912 120.151 46.6138C119.651 45.7363 119.002 45.0742 118.197 44.6192C117.393 44.1683 116.515 43.9409 115.565 43.9409C114.663 43.9409 113.806 44.1683 112.989 44.6192C112.173 45.0701 111.515 45.7363 111.015 46.6138C110.516 47.4912 110.268 48.5636 110.268 49.831C110.268 51.0984 110.516 52.1343 111.015 53.0117C111.515 53.8891 112.173 54.5594 112.989 55.0225C113.806 55.4856 114.663 55.7171 115.565 55.7171Z" fill="#FDFFE6"/>
<path d="M130.697 59.9574V39.7033H135.851V43.9808C136.168 43.079 136.656 42.2869 137.314 41.6044C137.972 40.922 138.74 40.3939 139.617 40.0121C140.494 39.6343 141.396 39.4434 142.322 39.4434C143.858 39.4434 145.203 39.7846 146.36 40.467C147.518 41.1495 148.412 42.1285 149.049 43.4121C149.683 44.6917 150 46.2353 150 48.0349V59.9533H144.882V48.9854C144.882 47.3768 144.467 46.1175 143.639 45.2035C142.81 44.2895 141.725 43.8305 140.385 43.8305C139.483 43.8305 138.691 44.0661 138.008 44.5414C137.326 45.0167 136.794 45.6707 136.416 46.4953C136.038 47.324 135.847 48.2745 135.847 49.347V59.9492H130.692L130.697 59.9574Z" fill="#FDFFE6"/>
<path d="M83.2949 63.2241H76.9945C75.1097 63.2241 73.7813 62.4523 73.7813 60.9533C73.7813 60.2912 74.1225 59.6494 74.5775 59.166C76.0115 59.8647 77.6079 60.2181 79.3749 60.2181C81.3492 60.2181 83.1325 59.7915 84.733 58.9385C86.3294 58.0854 87.5968 56.879 88.5352 55.3191C89.4735 53.7592 89.9407 51.919 89.9407 49.7986C89.9407 47.6781 89.4776 45.8461 88.5514 44.2984C88.4052 44.0506 88.2427 43.815 88.0802 43.5875C89.6888 42.572 90.5419 41.2761 90.5419 39.6188C90.5419 38.8916 90.3713 38.0751 90.026 37.2627H85.3992C85.6998 37.9492 85.8297 38.5057 85.8297 39.0622C85.8297 39.7203 85.6063 40.3499 85.1148 40.8943C85.0132 40.8333 84.9117 40.7724 84.8101 40.7196C83.2381 39.8787 81.4751 39.4563 79.5293 39.4563C77.5835 39.4563 75.8124 39.8787 74.2282 40.7196C72.6439 41.5605 71.3887 42.7548 70.4625 44.3024C69.5363 45.8501 69.0733 47.6822 69.0733 49.8026C69.0733 51.9231 69.5282 53.7633 70.4463 55.3231C70.6819 55.7212 70.9378 56.099 71.214 56.4524C69.7516 57.6548 68.4802 59.4706 68.4802 61.9486C68.4802 65.8929 71.5674 67.9037 75.6784 67.9037H80.4352C83.693 67.9037 84.4649 69.3174 84.4649 70.6904C84.4649 71.6775 83.9936 72.7052 83.3071 73.3917L88.3239 74.7201C89.7822 73.0911 90.5541 71.0763 90.5541 69.1914C90.5541 66.0189 88.2386 63.2322 83.3112 63.2322L83.2949 63.2241ZM75.0609 46.5042C75.5484 45.6267 76.178 44.9768 76.9458 44.5502C77.7135 44.1237 78.5463 43.9084 79.4481 43.9084C80.3499 43.9084 81.1948 44.1237 81.991 44.5502C82.7831 44.9768 83.429 45.6308 83.9286 46.5042C84.4283 47.3816 84.6761 48.4784 84.6761 49.7945C84.6761 51.1107 84.4202 52.2156 83.9083 53.1011C83.3965 53.9907 82.7384 54.6488 81.9341 55.0754C81.1298 55.5019 80.2767 55.7172 79.3749 55.7172C78.4731 55.7172 77.6404 55.5059 76.8686 55.0754C76.1008 54.6488 75.4834 53.9907 75.0244 53.1011C74.5613 52.2115 74.3297 51.1107 74.3297 49.7945C74.3297 48.4784 74.5734 47.3816 75.0609 46.5042Z" fill="#FDFFE6"/>
</svg>
