<svg width="250" height="41" viewBox="0 0 250 41" fill="none" xmlns="http://www.w3.org/2000/svg">
<path d="M0 27.5315V4.44043H8.07197C10.5421 4.44043 12.685 4.9146 14.5045 5.86295C16.324 6.81129 17.7392 8.15662 18.7574 9.89893C19.7719 11.6412 20.2792 13.6813 20.2792 16.0191C20.2792 18.3568 19.7719 20.3859 18.7574 22.1061C17.7429 23.8264 16.324 25.1607 14.5045 26.109C12.685 27.0574 10.5384 27.5315 8.07197 27.5315H0ZM4.66454 23.5617H7.90656C10.3326 23.5617 12.1998 22.9001 13.5121 21.5768C14.8243 20.2535 15.4823 18.401 15.4823 16.0191C15.4823 13.6372 14.8243 11.7625 13.5121 10.3952C12.1998 9.02777 10.3289 8.34408 7.90656 8.34408H4.66454V23.5617Z" fill="#FDFFE6"/>
<path d="M30.7991 27.7631C29.1892 27.7631 27.7666 27.3625 26.5316 26.5575C25.2965 25.7525 24.3261 24.6387 23.6204 23.2162C22.9146 21.7937 22.5618 20.18 22.5618 18.3716C22.5618 16.5631 22.9146 14.92 23.6204 13.5085C24.3261 12.097 25.2965 10.9906 26.5316 10.1856C27.7666 9.38065 29.1892 8.97632 30.7991 8.97632C32.2547 8.97632 33.5229 9.35125 34.6036 10.1011C35.6842 10.851 36.4672 11.8875 36.9524 13.2108V9.20789H41.65V27.5352H39.4004C38.6506 27.5352 38.0551 27.311 37.614 26.8589C37.1729 26.4068 36.9524 25.8076 36.9524 25.0541V23.4992C36.4672 24.8446 35.6842 25.8922 34.6036 26.642C33.5229 27.3919 32.2547 27.7668 30.7991 27.7668V27.7631ZM32.1224 23.6941C32.9825 23.6941 33.7765 23.4845 34.5043 23.0655C35.2321 22.6465 35.8202 22.04 36.276 21.246C36.7281 20.452 36.9524 19.4927 36.9524 18.3679C36.9524 17.2431 36.7245 16.2506 36.276 15.4567C35.8239 14.6627 35.2358 14.0636 34.5043 13.6519C33.7765 13.2439 32.9825 13.038 32.1224 13.038C31.2623 13.038 30.5271 13.2439 29.7883 13.6519C29.0495 14.0599 28.454 14.6627 28.0019 15.4567C27.5498 16.2506 27.3255 17.221 27.3255 18.3679C27.3255 19.5147 27.5498 20.452 28.0019 21.246C28.454 22.04 29.0495 22.6465 29.7883 23.0655C30.5271 23.4845 31.3027 23.6941 32.1224 23.6941Z" fill="#FDFFE6"/>
<path d="M46.1821 27.5316V9.20424H50.8467V13.0748C51.1334 12.2588 51.5745 11.542 52.1699 10.9245C52.7654 10.307 53.4601 9.82912 54.2541 9.4836C55.0481 9.14175 55.8641 8.96899 56.7021 8.96899C58.0916 8.96899 59.3083 9.27776 60.3595 9.89529C61.4071 10.5128 62.2158 11.3987 62.7929 12.5602C63.3663 13.7181 63.653 15.1149 63.653 16.7432V27.5279H59.0216V17.6034C59.0216 16.1478 58.6466 15.0083 57.8968 14.1812C57.1469 13.3542 56.1655 12.9388 54.9525 12.9388C54.1365 12.9388 53.4197 13.152 52.8022 13.5821C52.1846 14.0121 51.7031 14.6039 51.3613 15.3501C51.0194 16.1 50.8503 16.9601 50.8503 17.9305V27.5242H46.1858L46.1821 27.5316Z" fill="#FDFFE6"/>
<path d="M74.7648 27.7629C73.4416 27.7629 72.2506 27.5497 71.192 27.1196C70.1334 26.6895 69.2512 26.0904 68.5454 25.3185C67.8397 24.5466 67.3435 23.6864 67.0568 22.7381L71.4236 21.7456C71.6221 22.4734 72.019 23.0542 72.6145 23.4843C73.21 23.9143 73.9047 24.1275 74.6987 24.1275C75.625 24.1275 76.3233 23.9511 76.7975 23.5982C77.2717 23.2454 77.5106 22.8043 77.5106 22.275C77.5106 21.7456 77.2607 21.2972 76.7644 21.0031C76.2682 20.7054 75.6286 20.4628 74.8457 20.2753C74.0628 20.0879 73.2284 19.8784 72.3499 19.6468C71.4677 19.4152 70.6296 19.1065 69.8356 18.7205C69.0417 18.3345 68.3947 17.8052 67.9022 17.1326C67.406 16.4599 67.156 15.5593 67.156 14.4382C67.156 13.4458 67.4464 12.5305 68.0345 11.6924C68.619 10.8544 69.4497 10.1927 70.5304 9.70754C71.611 9.22234 72.9012 8.97974 74.4009 8.97974C75.7022 8.97974 76.849 9.17823 77.8414 9.57521C78.8339 9.97219 79.6499 10.5419 80.2895 11.2808C80.9291 12.0196 81.3702 12.8834 81.6128 13.8758L77.3783 15.0006C77.1798 14.2287 76.8306 13.6406 76.3381 13.2289C75.8418 12.8209 75.1508 12.6151 74.2723 12.6151C73.3938 12.6151 72.7946 12.7768 72.3535 13.0929C71.9124 13.4127 71.6919 13.8391 71.6919 14.3684C71.6919 14.8977 71.9419 15.3425 72.4381 15.6402C72.9343 15.9379 73.5739 16.1916 74.3568 16.4011C75.1398 16.6106 75.9705 16.8312 76.8527 17.0627C77.7348 17.2943 78.5692 17.6067 79.3485 18.0037C80.1278 18.4007 80.771 18.941 81.2672 19.6247C81.7635 20.3084 82.0098 21.2127 82.0098 22.3374C82.0098 23.3299 81.712 24.2378 81.1165 25.0649C80.5211 25.8919 79.683 26.5499 78.6023 27.0351C77.5216 27.5203 76.2425 27.7629 74.7648 27.7629Z" fill="#FDFFE6"/>
<path d="M85.6488 27.5313V3.05078H90.3133V16.6143C91.4161 16.3938 92.4637 15.96 93.4561 15.3094C94.4486 14.6588 95.3087 13.8171 96.0365 12.7805C96.7643 11.7439 97.2716 10.553 97.5583 9.20768H102.521C102.168 10.6192 101.598 11.9314 100.819 13.1444C100.036 14.3574 99.1241 15.416 98.0912 16.3203C97.0547 17.2245 95.974 17.8972 94.8492 18.3383C95.7094 18.5809 96.5695 18.9962 97.4296 19.5807C98.2897 20.1651 99.0947 20.8709 99.8446 21.6979C100.594 22.5249 101.234 23.4329 101.763 24.4253C102.293 25.4178 102.646 26.4543 102.822 27.535H97.8597C97.6391 26.5205 97.2752 25.6016 96.768 24.7745C96.2607 23.9475 95.6689 23.2197 94.9963 22.5911C94.3236 21.9626 93.5848 21.4516 92.7798 21.0546C91.9748 20.6577 91.1551 20.4151 90.3133 20.3268V27.5387H85.6488V27.5313Z" fill="#FDFFE6"/>
<path d="M131.174 18.5112C130.711 17.6621 130.082 16.9674 129.288 16.4271C128.711 16.0338 128.079 15.7728 127.399 15.6441C127.855 15.5008 128.285 15.3133 128.693 15.0891C129.487 14.648 130.126 14.0305 130.611 13.2365C131.097 12.4426 131.339 11.4942 131.339 10.3915C131.339 9.28875 131.045 8.22646 130.464 7.33325C129.88 6.44004 129.031 5.7343 127.917 5.21601C126.803 4.69773 125.44 4.44043 123.83 4.44043H114.269V27.5315H124.227C125.837 27.5315 127.208 27.2669 128.347 26.7376C129.483 26.2083 130.354 25.4694 130.961 24.5211C131.567 23.5727 131.868 22.4921 131.868 21.2791C131.868 20.2866 131.637 19.3677 131.174 18.5186V18.5112ZM118.933 8.20441H123.135C124.216 8.20441 125.057 8.45803 125.664 8.96529C126.27 9.47254 126.572 10.1783 126.572 11.0825C126.572 12.0309 126.267 12.7476 125.664 13.2328C125.057 13.718 124.212 13.9606 123.135 13.9606H118.933V8.20441ZM126.211 22.9405C125.594 23.4588 124.723 23.7198 123.598 23.7198H118.933V17.5335H123.499C124.601 17.5335 125.484 17.8128 126.145 18.3752C126.807 18.9376 127.138 19.7132 127.138 20.7057C127.138 21.6981 126.829 22.4222 126.211 22.9405Z" fill="#FDFFE6"/>
<path d="M144.079 27.7556C142.315 27.7556 140.731 27.3696 139.33 26.5977C137.93 25.8258 136.816 24.7341 135.989 23.3226C135.162 21.9111 134.746 20.246 134.746 18.3272C134.746 16.4085 135.165 14.7507 136.004 13.3503C136.842 11.9498 137.977 10.8691 139.411 10.1082C140.845 9.34737 142.443 8.96509 144.208 8.96509C145.972 8.96509 147.564 9.34737 148.986 10.1082C150.409 10.8691 151.537 11.9498 152.375 13.3503C153.213 14.7507 153.633 16.4085 153.633 18.3272C153.633 20.246 153.206 21.9111 152.361 23.3226C151.512 24.7341 150.365 25.8258 148.92 26.5977C147.476 27.3696 145.858 27.7556 144.072 27.7556H144.079ZM144.079 23.6865C144.895 23.6865 145.667 23.4954 146.395 23.1057C147.123 22.7198 147.718 22.1243 148.181 21.3193C148.645 20.5143 148.876 19.5182 148.876 18.3272C148.876 17.1363 148.648 16.1438 148.2 15.3499C147.748 14.5559 147.163 13.9678 146.446 13.5818C145.73 13.1959 144.961 13.0011 144.145 13.0011C143.329 13.0011 142.576 13.1959 141.881 13.5818C141.186 13.9678 140.617 14.5596 140.176 15.3499C139.734 16.1438 139.514 17.1363 139.514 18.3272C139.514 19.5182 139.723 20.518 140.142 21.3193C140.562 22.1243 141.12 22.7198 141.811 23.1057C142.506 23.4917 143.26 23.6865 144.079 23.6865Z" fill="#FDFFE6"/>
<path d="M156.647 22.5948V3.04346H161.311V22.2971C161.311 22.7823 161.455 23.1462 161.741 23.3888C162.028 23.6314 162.37 23.7527 162.767 23.7527C163.054 23.7527 163.296 23.7086 163.495 23.6203L164.355 27.1601C163.583 27.5571 162.701 27.7556 161.708 27.7556C160.892 27.7556 160.091 27.5865 159.312 27.2446C158.529 26.9028 157.889 26.3514 157.393 25.5906C156.897 24.8297 156.65 23.8335 156.65 22.5948H156.647Z" fill="#FDFFE6"/>
<path d="M170.284 6.98023C169.357 6.98023 168.585 6.70087 167.968 6.13848C167.35 5.57609 167.042 4.87769 167.042 4.03962C167.042 3.20155 167.35 2.4958 167.968 1.92238C168.585 1.34896 169.357 1.06226 170.284 1.06226C171.21 1.06226 171.982 1.34896 172.599 1.92238C173.217 2.4958 173.526 3.20155 173.526 4.03962C173.526 4.87769 173.217 5.57609 172.599 6.13848C171.982 6.70087 171.21 6.98023 170.284 6.98023ZM167.902 27.524V9.19671H172.599V27.524H167.902Z" fill="#FDFFE6"/>
<path d="M199.918 22.5948V3.04346H204.582V22.2971C204.582 22.7823 204.726 23.1462 205.012 23.3888C205.299 23.6314 205.641 23.7527 206.038 23.7527C206.324 23.7527 206.567 23.7086 206.766 23.6203L207.626 27.1601C206.854 27.5571 205.972 27.7556 204.979 27.7556C204.163 27.7556 203.362 27.5865 202.579 27.2446C201.796 26.9028 201.156 26.3514 200.66 25.5906C200.164 24.8297 199.914 23.8335 199.914 22.5948H199.918Z" fill="#FDFFE6"/>
<path d="M217.517 27.7556C215.907 27.7556 214.485 27.355 213.25 26.55C212.015 25.745 211.044 24.6313 210.338 23.2087C209.633 21.7862 209.28 20.1726 209.28 18.3641C209.28 16.5556 209.633 14.9125 210.338 13.5011C211.044 12.0896 212.015 10.9832 213.25 10.1782C214.485 9.37318 215.907 8.96885 217.517 8.96885C218.973 8.96885 220.241 9.34378 221.322 10.0936C222.402 10.8435 223.185 11.88 223.67 13.2033V9.20042H228.368V27.5278H226.118C225.369 27.5278 224.773 27.3035 224.332 26.8514C223.891 26.3993 223.67 25.8001 223.67 25.0466V23.4918C223.185 24.8371 222.402 25.8847 221.322 26.6345C220.241 27.3844 218.973 27.7593 217.517 27.7593V27.7556ZM218.84 23.6866C219.701 23.6866 220.495 23.4771 221.222 23.058C221.95 22.639 222.538 22.0325 222.99 21.2385C223.442 20.4446 223.67 19.4852 223.67 18.3604C223.67 17.2356 223.442 16.2432 222.99 15.4492C222.538 14.6552 221.95 14.0561 221.222 13.6444C220.495 13.2364 219.701 13.0306 218.84 13.0306C218.024 13.0306 217.249 13.2364 216.51 13.6444C215.771 14.0524 215.176 14.6552 214.724 15.4492C214.271 16.2432 214.047 17.2136 214.047 18.3604C214.047 19.5072 214.271 20.4446 214.724 21.2385C215.176 22.0325 215.771 22.639 216.51 23.058C217.249 23.4771 218.024 23.6866 218.84 23.6866ZM223.306 3.80441C223.306 4.9733 222.924 5.89959 222.163 6.58328C221.402 7.26697 220.48 7.60882 219.403 7.60882C218.326 7.60882 217.433 7.26697 216.675 6.58328C215.915 5.89959 215.532 4.9733 215.532 3.80441C215.532 2.63552 215.915 1.70923 216.675 1.02554C217.436 0.341846 218.344 0 219.403 0C220.461 0 221.406 0.341846 222.163 1.02554C222.924 1.70923 223.306 2.63552 223.306 3.80441ZM220.991 3.77133C220.991 3.28613 220.836 2.88914 220.528 2.58038C220.219 2.27162 219.844 2.11724 219.403 2.11724C218.962 2.11724 218.613 2.27162 218.296 2.58038C217.977 2.88914 217.815 3.28613 217.815 3.77133C217.815 4.25653 217.973 4.65351 218.296 4.96227C218.616 5.27104 218.984 5.42542 219.403 5.42542C219.844 5.42542 220.219 5.27104 220.528 4.96227C220.836 4.65351 220.991 4.25653 220.991 3.77133Z" fill="#FDFFE6"/>
<path d="M232.533 27.5243V9.19692H237.197V13.0675C237.484 12.2515 237.925 11.5347 238.521 10.9172C239.116 10.2996 239.811 9.8218 240.605 9.47628C241.399 9.13443 242.215 8.96167 243.053 8.96167C244.442 8.96167 245.659 9.27044 246.706 9.88796C247.754 10.5055 248.563 11.3913 249.14 12.5529C249.713 13.7108 250 15.1075 250 16.7359V27.5206H245.368V17.596C245.368 16.1404 244.994 15.0009 244.244 14.1739C243.494 13.3468 242.512 12.9315 241.299 12.9315C240.483 12.9315 239.767 13.1447 239.149 13.5747C238.532 14.0048 238.05 14.5966 237.708 15.3428C237.366 16.0926 237.194 16.9528 237.194 17.9232V27.5169H232.529L232.533 27.5243Z" fill="#FDFFE6"/>
<path d="M189.64 30.4793H183.939C182.234 30.4793 181.032 29.7809 181.032 28.4246C181.032 27.8254 181.34 27.2446 181.752 26.8072C183.05 27.4395 184.494 27.7593 186.093 27.7593C187.88 27.7593 189.493 27.3733 190.942 26.6014C192.386 25.8295 193.533 24.7378 194.382 23.3263C195.231 21.9148 195.654 20.2497 195.654 18.3309C195.654 16.4122 195.235 14.7544 194.397 13.354C194.264 13.1297 194.117 12.9165 193.97 12.7107C195.426 11.7918 196.198 10.6192 196.198 9.11949C196.198 8.46153 196.044 7.7227 195.731 6.98755H191.544C191.816 7.60875 191.934 8.11233 191.934 8.61591C191.934 9.21138 191.732 9.78112 191.287 10.2737C191.195 10.2185 191.103 10.1634 191.011 10.1156C189.589 9.35473 187.994 8.97246 186.233 8.97246C184.472 8.97246 182.87 9.35473 181.436 10.1156C180.003 10.8765 178.867 11.9572 178.029 13.3576C177.191 14.7581 176.772 16.4159 176.772 18.3346C176.772 20.2534 177.183 21.9185 178.014 23.33C178.227 23.6902 178.459 24.032 178.709 24.3518C177.385 25.4399 176.235 27.0829 176.235 29.3251C176.235 32.8943 179.028 34.7138 182.748 34.7138H187.053C190.001 34.7138 190.699 35.993 190.699 37.2354C190.699 38.1286 190.273 39.0585 189.651 39.6797L194.191 40.8817C195.511 39.4077 196.209 37.5846 196.209 35.879C196.209 33.0082 194.114 30.4867 189.655 30.4867L189.64 30.4793ZM182.19 15.3499C182.631 14.5559 183.2 13.9678 183.895 13.5819C184.59 13.1959 185.343 13.0011 186.159 13.0011C186.975 13.0011 187.74 13.1959 188.46 13.5819C189.177 13.9678 189.762 14.5596 190.214 15.3499C190.666 16.1439 190.89 17.1363 190.89 18.3273C190.89 19.5182 190.659 20.518 190.195 21.3193C189.732 22.1243 189.137 22.7198 188.409 23.1057C187.681 23.4917 186.909 23.6865 186.093 23.6865C185.277 23.6865 184.524 23.4954 183.825 23.1057C183.131 22.7198 182.572 22.1243 182.157 21.3193C181.737 20.5143 181.528 19.5182 181.528 18.3273C181.528 17.1363 181.748 16.1439 182.19 15.3499Z" fill="#FDFFE6"/>
</svg>
