<svg xmlns="http://www.w3.org/2000/svg" width="60" height="41" viewBox="0 0 60 41" fill="none"><rect y="0.36261" width="60" height="40" rx="20" fill="#00382D"></rect><path d="M19.0625 13.175C19.0625 12.345 19.7461 11.6125 20.625 11.6125H39.375C40.2051 11.6125 40.9375 12.345 40.9375 13.175C40.9375 14.054 40.2051 14.7375 39.375 14.7375H20.625C19.7461 14.7375 19.0625 14.054 19.0625 13.175ZM19.0625 20.9875C19.0625 20.1575 19.7461 19.425 20.625 19.425H39.375C40.2051 19.425 40.9375 20.1575 40.9375 20.9875C40.9375 21.8665 40.2051 22.55 39.375 22.55H20.625C19.7461 22.55 19.0625 21.8665 19.0625 20.9875ZM39.375 30.3625H20.625C19.7461 30.3625 19.0625 29.679 19.0625 28.8C19.0625 27.97 19.7461 27.2375 20.625 27.2375H39.375C40.2051 27.2375 40.9375 27.97 40.9375 28.8C40.9375 29.679 40.2051 30.3625 39.375 30.3625Z" fill="#96FAB9"></path></svg>