<svg width="50" height="40" viewBox="0 0 50 40" fill="none" xmlns="http://www.w3.org/2000/svg">
<path d="M0.171234 39.0411C0.0570782 38.5845 0 38.1279 0 37.6712C0 37.2146 0 36.8721 0 36.6438C0 29.9087 1.0274 23.516 3.08219 17.4658C5.13699 11.4155 8.10502 5.59361 11.9863 0L21.2329 3.76713C18.4932 9.24658 16.5525 14.3836 15.411 19.1781C14.2694 23.9726 13.6986 28.4247 13.6986 32.5342C13.6986 33.6758 13.6986 34.7603 13.6986 35.7877C13.6986 36.8151 13.7557 37.8995 13.8699 39.0411H0.171234ZM28.9384 39.0411C28.8242 38.5845 28.7671 38.1279 28.7671 37.6712C28.7671 37.2146 28.7671 36.8721 28.7671 36.6438C28.7671 29.9087 29.7945 23.516 31.8493 17.4658C33.9041 11.4155 36.8722 5.59361 40.7534 0L50 3.76713C47.2603 9.24658 45.3196 14.3836 44.1781 19.1781C43.0365 23.9726 42.4658 28.4247 42.4658 32.5342C42.4658 33.6758 42.4658 34.7603 42.4658 35.7877C42.4658 36.8151 42.5228 37.8995 42.637 39.0411H28.9384Z" fill="#0272DB"/>
</svg>
