<svg xmlns="http://www.w3.org/2000/svg" width="174" height="174" viewBox="0 0 174 174" fill="none"><path d="M82.0001 94.9071H0V110.725H82.0001V94.9071Z" fill="#96FAB9"></path><path d="M82.0001 63.2714H0V79.0893H82.0001V63.2714Z" fill="#96FAB9"></path><path d="M82.0001 31.6356H0V47.4535H82.0001V31.6356Z" fill="#96FAB9"></path><path d="M82.0001 0H0V15.8179H82.0001V0Z" fill="#96FAB9"></path><path d="M174 79.0892H82.0001V94.9071H174V79.0892Z" fill="#96FAB9"></path><path d="M174 47.4535H82.0001V63.2714H174V47.4535Z" fill="#96FAB9"></path><path d="M174 15.8179H82.0001V31.6358H174V15.8179Z" fill="#96FAB9"></path><path d="M82.0001 126.543H0V142.361H82.0001V126.543Z" fill="#96FAB9"></path><path d="M82.0001 158.182H0V174H82.0001V158.182Z" fill="#96FAB9"></path><path d="M174 110.725H82.0001V174H174V110.725Z" fill="#96FAB9"></path></svg>