<svg width="175" height="88" viewBox="0 0 175 88" fill="none" xmlns="http://www.w3.org/2000/svg">
<path d="M0 31.5632V1.7915H10.4073C13.5921 1.7915 16.355 2.40286 18.7009 3.62558C21.0468 4.84829 22.8714 6.58284 24.1842 8.82923C25.4922 11.0756 26.1462 13.7059 26.1462 16.72C26.1462 19.7341 25.4922 22.3502 24.1842 24.5681C22.8762 26.7861 21.0468 28.5064 18.7009 29.7291C16.355 30.9519 13.5873 31.5632 10.4073 31.5632H0ZM6.01406 26.4449H10.194C13.3219 26.4449 15.7294 25.5918 17.4213 23.8857C19.1132 22.1796 19.9616 19.791 19.9616 16.72C19.9616 13.649 19.1132 11.232 17.4213 9.46902C15.7294 7.70604 13.3172 6.82454 10.194 6.82454H6.01406V26.4449Z" fill="#FDFFE6"/>
<path d="M39.7098 31.8617C37.6341 31.8617 35.8 31.3452 34.2076 30.3073C32.6152 29.2694 31.3641 27.8334 30.4542 25.9993C29.5442 24.1653 29.0893 22.0848 29.0893 19.7531C29.0893 17.4214 29.5442 15.3029 30.4542 13.4831C31.3641 11.6632 32.6152 10.2367 34.2076 9.19885C35.8 8.16096 37.6341 7.63965 39.7098 7.63965C41.5866 7.63965 43.2216 8.12305 44.6149 9.08985C46.0082 10.0566 47.0177 11.3931 47.6433 13.0992V7.93822H53.7V31.5679H50.7996C49.8328 31.5679 49.065 31.2788 48.4963 30.6959C47.9276 30.113 47.6433 29.3405 47.6433 28.3689V26.3643C47.0177 28.0988 46.0082 29.4495 44.6149 30.4163C43.2216 31.3831 41.5866 31.8665 39.7098 31.8665V31.8617ZM41.4159 26.6154C42.5249 26.6154 43.5486 26.3453 44.487 25.805C45.4253 25.2648 46.1836 24.4828 46.7713 23.4591C47.3542 22.4355 47.6433 21.1985 47.6433 19.7483C47.6433 18.2981 47.3494 17.0185 46.7713 15.9949C46.1883 14.9712 45.4301 14.1987 44.487 13.6679C43.5486 13.1419 42.5249 12.8765 41.4159 12.8765C40.307 12.8765 39.3591 13.1419 38.4066 13.6679C37.454 14.194 36.6862 14.9712 36.1033 15.9949C35.5204 17.0185 35.2313 18.2697 35.2313 19.7483C35.2313 21.227 35.5204 22.4355 36.1033 23.4591C36.6862 24.4828 37.454 25.2648 38.4066 25.805C39.3591 26.3453 40.3591 26.6154 41.4159 26.6154Z" fill="#FDFFE6"/>
<path d="M59.5434 31.5634V7.93368H65.5574V12.9241C65.9271 11.872 66.4958 10.9478 67.2635 10.1516C68.0313 9.35544 68.927 8.73935 69.9507 8.29386C70.9743 7.85311 72.0264 7.63037 73.107 7.63037C74.8984 7.63037 76.4671 8.02846 77.8225 8.82465C79.1732 9.62084 80.2158 10.763 80.9599 12.2606C81.6992 13.7534 82.0688 15.5543 82.0688 17.6538V31.5586H76.0974V18.7628C76.0974 16.886 75.614 15.4169 74.6472 14.3506C73.6804 13.2842 72.4151 12.7487 70.8511 12.7487C69.799 12.7487 68.8749 13.0236 68.0787 13.5781C67.2825 14.1326 66.6617 14.8956 66.2209 15.8576C65.7802 16.8244 65.5622 17.9334 65.5622 19.1846V31.5539H59.5481L59.5434 31.5634Z" fill="#FDFFE6"/>
<path d="M96.3954 31.8619C94.6893 31.8619 93.1538 31.587 91.7889 31.0325C90.424 30.478 89.2866 29.7056 88.3767 28.7103C87.4668 27.7151 86.827 26.6061 86.4573 25.3834L92.0875 24.1038C92.3434 25.0422 92.8552 25.791 93.623 26.3455C94.3907 26.8999 95.2865 27.1748 96.3101 27.1748C97.5044 27.1748 98.4049 26.9473 99.0162 26.4924C99.6276 26.0374 99.9356 25.4687 99.9356 24.7863C99.9356 24.1038 99.6134 23.5256 98.9736 23.1465C98.3338 22.7626 97.5091 22.4498 96.4997 22.2081C95.4902 21.9664 94.4144 21.6963 93.2818 21.3977C92.1444 21.0991 91.0638 20.7011 90.0402 20.2034C89.0165 19.7058 88.1824 19.0234 87.5473 18.1561C86.9075 17.2888 86.5853 16.1277 86.5853 14.6823C86.5853 13.4027 86.9597 12.2226 87.7179 11.1421C88.4715 10.0615 89.5425 9.20847 90.9359 8.5829C92.3292 7.95732 93.9927 7.64453 95.9263 7.64453C97.6039 7.64453 99.0826 7.90045 100.362 8.41228C101.642 8.92412 102.694 9.6587 103.518 10.6113C104.343 11.5639 104.912 12.6776 105.225 13.9572L99.765 15.4074C99.5091 14.4121 99.0589 13.6538 98.4238 13.1231C97.784 12.597 96.893 12.3316 95.7604 12.3316C94.6277 12.3316 93.8552 12.5401 93.2865 12.9477C92.7178 13.36 92.4334 13.9098 92.4334 14.5922C92.4334 15.2747 92.7557 15.8481 93.3955 16.232C94.0353 16.6159 94.8599 16.9429 95.8694 17.213C96.8788 17.4831 97.9499 17.7675 99.0873 18.0661C100.225 18.3646 101.301 18.7675 102.305 19.2793C103.31 19.7911 104.139 20.4878 104.779 21.3693C105.419 22.2508 105.736 23.4166 105.736 24.8668C105.736 26.1464 105.353 27.317 104.585 28.3833C103.817 29.4496 102.736 30.298 101.343 30.9235C99.9498 31.5491 98.3006 31.8619 96.3954 31.8619Z" fill="#FDFFE6"/>
<path d="M110.428 31.5631V0H116.442V17.4877C117.864 17.2033 119.215 16.6441 120.494 15.8053C121.774 14.9664 122.883 13.8811 123.821 12.5447C124.76 11.2082 125.414 9.67273 125.783 7.93818H132.181C131.726 9.75803 130.992 11.4499 129.987 13.0139C128.978 14.5778 127.802 15.9427 126.471 17.1085C125.134 18.2744 123.741 19.1417 122.291 19.7104C123.4 20.0232 124.509 20.5587 125.618 21.3122C126.727 22.0658 127.764 22.9757 128.731 24.042C129.698 25.1083 130.523 26.2789 131.205 27.5585C131.888 28.8381 132.342 30.1746 132.57 31.5679H126.172C125.888 30.2599 125.419 29.0751 124.764 28.0087C124.11 26.9424 123.347 26.004 122.48 25.1936C121.613 24.3832 120.66 23.7245 119.622 23.2127C118.585 22.7008 117.528 22.388 116.442 22.2743V31.5726H110.428V31.5631Z" fill="#FDFFE6"/>
<path d="M21.7956 58.3302C21.1985 57.2354 20.3881 56.3397 19.3644 55.643C18.6204 55.1359 17.8052 54.7995 16.9285 54.6336C17.5161 54.4488 18.0706 54.2071 18.5967 53.918C19.6203 53.3493 20.445 52.5531 21.0705 51.5294C21.6961 50.5057 22.0089 49.283 22.0089 47.8613C22.0089 46.4395 21.6298 45.0699 20.881 43.9182C20.1274 42.7666 19.0327 41.8567 17.5967 41.1885C16.1607 40.5202 14.4025 40.1885 12.3267 40.1885H0V69.9602H12.8385C14.9143 69.9602 16.682 69.619 18.1512 68.9365C19.6156 68.2541 20.7388 67.3015 21.5208 66.0788C22.3027 64.8561 22.6913 63.4627 22.6913 61.8988C22.6913 60.6192 22.3928 59.4344 21.7956 58.3396V58.3302ZM6.01406 45.0414H11.431C12.8243 45.0414 13.9096 45.3684 14.6916 46.0224C15.4735 46.6765 15.8621 47.5864 15.8621 48.7522C15.8621 49.9749 15.4688 50.8991 14.6916 51.5247C13.9096 52.1502 12.8196 52.463 11.431 52.463H6.01406V45.0414ZM15.3977 64.0409C14.6015 64.7091 13.4783 65.0456 12.0281 65.0456H6.01406V57.0695H11.9002C13.3219 57.0695 14.4593 57.4297 15.3124 58.1548C16.1654 58.8799 16.592 59.8799 16.592 61.1595C16.592 62.4391 16.1939 63.3727 15.3977 64.0409Z" fill="#FDFFE6"/>
<path d="M38.435 70.2498C36.1601 70.2498 34.1175 69.7522 32.3119 68.7569C30.5063 67.7617 29.0703 66.3542 28.004 64.5343C26.9376 62.7144 26.4021 60.5676 26.4021 58.0937C26.4021 55.6198 26.9424 53.4825 28.0229 51.6768C29.1035 49.8712 30.5679 48.4779 32.4162 47.4968C34.2644 46.5158 36.326 46.0229 38.6008 46.0229C40.8756 46.0229 42.9277 46.5158 44.7618 47.4968C46.5959 48.4779 48.0508 49.8712 49.1313 51.6768C50.2119 53.4825 50.7522 55.6198 50.7522 58.0937C50.7522 60.5676 50.2024 62.7144 49.1124 64.5343C48.0176 66.3542 46.539 67.7617 44.6765 68.7569C42.814 69.7522 40.7287 70.2498 38.4255 70.2498H38.435ZM38.435 65.0035C39.4871 65.0035 40.4823 64.757 41.4207 64.2547C42.359 63.7571 43.1268 62.9893 43.7239 61.9514C44.3211 60.9135 44.6196 59.6292 44.6196 58.0937C44.6196 56.5582 44.3258 55.2786 43.7476 54.255C43.1647 53.2313 42.4111 52.473 41.487 51.9754C40.5629 51.4778 39.5724 51.2266 38.5203 51.2266C37.4682 51.2266 36.4966 51.4778 35.6009 51.9754C34.7052 52.473 33.9706 53.236 33.4019 54.255C32.8332 55.2786 32.5489 56.5582 32.5489 58.0937C32.5489 59.6292 32.819 60.9183 33.3593 61.9514C33.8995 62.9893 34.6199 63.7571 35.5109 64.2547C36.4066 64.7523 37.3781 65.0035 38.435 65.0035Z" fill="#FDFFE6"/>
<path d="M54.6384 63.5956V38.3877H60.6524V63.2117C60.6524 63.8373 60.8372 64.3064 61.2069 64.6192C61.5766 64.932 62.0173 65.0884 62.5292 65.0884C62.8988 65.0884 63.2116 65.0315 63.4675 64.9178L64.5765 69.4817C63.5813 69.9935 62.4438 70.2494 61.1643 70.2494C60.1122 70.2494 59.079 70.0314 58.0743 69.5907C57.0648 69.1499 56.2402 68.439 55.6004 67.458C54.9606 66.477 54.6431 65.1927 54.6431 63.5956H54.6384Z" fill="#FDFFE6"/>
<path d="M72.2208 43.4636C71.0266 43.4636 70.0313 43.1034 69.2351 42.3783C68.439 41.6532 68.0409 40.7528 68.0409 39.6723C68.0409 38.5917 68.439 37.6818 69.2351 36.9425C70.0313 36.2032 71.0266 35.8335 72.2208 35.8335C73.4151 35.8335 74.4104 36.2032 75.2065 36.9425C76.0027 37.6818 76.4008 38.5917 76.4008 39.6723C76.4008 40.7528 76.0027 41.6532 75.2065 42.3783C74.4104 43.1034 73.4151 43.4636 72.2208 43.4636ZM69.1498 69.9511V46.3214H75.2065V69.9511H69.1498Z" fill="#FDFFE6"/>
<path d="M110.428 63.5956V38.3877H116.442V63.2117C116.442 63.8373 116.627 64.3064 116.997 64.6192C117.367 64.932 117.807 65.0884 118.319 65.0884C118.689 65.0884 119.002 65.0315 119.258 64.9178L120.367 69.4817C119.371 69.9935 118.234 70.2494 116.954 70.2494C115.902 70.2494 114.869 70.0314 113.86 69.5907C112.85 69.1499 112.026 68.439 111.386 67.458C110.746 66.477 110.424 65.1927 110.424 63.5956H110.428Z" fill="#FDFFE6"/>
<path d="M133.12 70.2491C131.044 70.2491 129.21 69.7326 127.617 68.6947C126.025 67.6568 124.774 66.2208 123.864 64.3867C122.954 62.5527 122.499 60.4722 122.499 58.1405C122.499 55.8088 122.954 53.6903 123.864 51.8705C124.774 50.0506 126.025 48.6241 127.617 47.5863C129.21 46.5484 131.044 46.0271 133.12 46.0271C134.996 46.0271 136.631 46.5104 138.025 47.4772C139.418 48.444 140.428 49.7805 141.053 51.4866V46.3256H147.11V69.9553H144.209C143.243 69.9553 142.475 69.6662 141.906 69.0833C141.337 68.5004 141.053 67.7279 141.053 66.7564V64.7517C140.428 66.4862 139.418 67.8369 138.025 68.8037C136.631 69.7705 134.996 70.2539 133.12 70.2539V70.2491ZM134.826 65.0028C135.935 65.0028 136.958 64.7327 137.897 64.1924C138.835 63.6522 139.593 62.8702 140.176 61.8465C140.759 60.8229 141.053 59.5859 141.053 58.1357C141.053 56.6855 140.759 55.4059 140.176 54.3823C139.593 53.3586 138.835 52.5861 137.897 52.0553C136.958 51.5293 135.935 51.2639 134.826 51.2639C133.774 51.2639 132.774 51.5293 131.821 52.0553C130.869 52.5814 130.101 53.3586 129.518 54.3823C128.935 55.4059 128.646 56.6571 128.646 58.1357C128.646 59.6144 128.935 60.8229 129.518 61.8465C130.101 62.8702 130.869 63.6522 131.821 64.1924C132.774 64.7327 133.774 65.0028 134.826 65.0028ZM140.584 39.3685C140.584 40.8755 140.091 42.0698 139.11 42.9513C138.129 43.8328 136.94 44.2735 135.551 44.2735C134.162 44.2735 133.011 43.8328 132.034 42.9513C131.053 42.0698 130.561 40.8755 130.561 39.3685C130.561 37.8614 131.053 36.6671 132.034 35.7856C133.015 34.9041 134.186 34.4634 135.551 34.4634C136.916 34.4634 138.134 34.9041 139.11 35.7856C140.091 36.6671 140.584 37.8614 140.584 39.3685ZM137.598 39.3258C137.598 38.7002 137.399 38.1884 137.001 37.7903C136.603 37.3922 136.12 37.1932 135.551 37.1932C134.982 37.1932 134.532 37.3922 134.124 37.7903C133.712 38.1884 133.504 38.7002 133.504 39.3258C133.504 39.9514 133.707 40.4632 134.124 40.8613C134.537 41.2594 135.011 41.4585 135.551 41.4585C136.12 41.4585 136.603 41.2594 137.001 40.8613C137.399 40.4632 137.598 39.9514 137.598 39.3258Z" fill="#FDFFE6"/>
<path d="M152.479 69.9506V46.3209H158.493V51.3113C158.863 50.2592 159.432 49.335 160.199 48.5388C160.967 47.7427 161.863 47.1266 162.887 46.6811C163.91 46.2403 164.962 46.0176 166.043 46.0176C167.834 46.0176 169.403 46.4157 170.754 47.2119C172.104 48.008 173.147 49.1502 173.891 50.6478C174.63 52.1406 175 53.9415 175 56.041V69.9458H169.029V57.15C169.029 55.2733 168.545 53.8041 167.578 52.7378C166.612 51.6715 165.346 51.1359 163.782 51.1359C162.73 51.1359 161.806 51.4108 161.01 51.9653C160.214 52.5198 159.593 53.2828 159.152 54.2448C158.711 55.2116 158.489 56.3206 158.489 57.5718V69.9411H152.475L152.479 69.9506Z" fill="#FDFFE6"/>
<path d="M97.1774 73.7614H89.8269C87.6279 73.7614 86.0782 72.861 86.0782 71.1122C86.0782 70.3397 86.4763 69.5909 87.0071 69.027C88.68 69.8421 90.5425 70.2544 92.6041 70.2544C94.9073 70.2544 96.9879 69.7568 98.8551 68.7616C100.718 67.7663 102.196 66.3588 103.291 64.5389C104.386 62.7191 104.931 60.5722 104.931 58.0983C104.931 55.6245 104.39 53.4871 103.31 51.6815C103.139 51.3924 102.95 51.1175 102.76 50.8521C104.637 49.6673 105.632 48.1555 105.632 46.2219C105.632 45.3736 105.433 44.421 105.03 43.4731H99.6323C99.983 44.2741 100.135 44.9233 100.135 45.5726C100.135 46.3404 99.874 47.0749 99.3006 47.71C99.1821 47.6389 99.0636 47.5678 98.9451 47.5062C97.1111 46.5252 95.0543 46.0323 92.7842 46.0323C90.5141 46.0323 88.4478 46.5252 86.5995 47.5062C84.7512 48.4872 83.2868 49.8806 82.2063 51.6862C81.1257 53.4918 80.5854 55.6292 80.5854 58.1031C80.5854 60.5769 81.1162 62.7238 82.1873 64.5437C82.4622 65.0081 82.7607 65.4489 83.083 65.8612C81.3769 67.264 79.8935 69.3824 79.8935 72.2733C79.8935 76.8751 83.4953 79.221 88.2914 79.221H93.841C97.6419 79.221 98.5423 80.8702 98.5423 82.4721C98.5423 83.6237 97.9926 84.8227 97.1916 85.6237L103.045 87.1734C104.746 85.273 105.646 82.9223 105.646 80.7233C105.646 77.022 102.945 73.7709 97.1964 73.7709L97.1774 73.7614ZM87.571 54.2548C88.1397 53.2312 88.8743 52.4729 89.77 51.9753C90.6657 51.4777 91.6373 51.2265 92.6894 51.2265C93.7415 51.2265 94.7272 51.4777 95.6561 51.9753C96.5803 52.4729 97.3338 53.2359 97.9167 54.2548C98.4997 55.2785 98.7887 56.5581 98.7887 58.0936C98.7887 59.6291 98.4902 60.9182 97.893 61.9513C97.2959 62.9892 96.5281 63.757 95.5898 64.2546C94.6514 64.7522 93.6562 65.0034 92.6041 65.0034C91.552 65.0034 90.5804 64.7569 89.68 64.2546C88.7843 63.757 88.0639 62.9892 87.5284 61.9513C86.9881 60.9134 86.718 59.6291 86.718 58.0936C86.718 56.5581 87.0023 55.2785 87.571 54.2548Z" fill="#FDFFE6"/>
</svg>
