<svg xmlns="http://www.w3.org/2000/svg" width="137" height="69" viewBox="0 0 137 69" fill="none"><path d="M0 24.6388V1.39844H8.12415C10.6102 1.39844 12.7671 1.87568 14.5983 2.83015C16.4296 3.78463 17.8539 5.13865 18.8787 6.89223C19.8997 8.6458 20.4103 10.699 20.4103 13.0519C20.4103 15.4048 19.8997 17.447 18.8787 19.1783C17.8576 20.9097 16.4296 22.2526 14.5983 23.2071C12.7671 24.1616 10.6065 24.6388 8.12415 24.6388H0ZM4.69469 20.6434H7.95767C10.3994 20.6434 12.2787 19.9774 13.5994 18.6456C14.9202 17.3138 15.5824 15.4492 15.5824 13.0519C15.5824 10.6546 14.9202 8.76789 13.5994 7.39166C12.2787 6.01544 10.3957 5.32733 7.95767 5.32733H4.69469V20.6434Z" fill="#96FAB9"></path><path d="M30.9983 24.8719C29.3779 24.8719 27.9462 24.4686 26.7031 23.6584C25.4601 22.8482 24.4834 21.7273 23.7731 20.2956C23.0628 18.8639 22.7076 17.2398 22.7076 15.4196C22.7076 13.5994 23.0628 11.9458 23.7731 10.5251C24.4834 9.10452 25.4601 7.99096 26.7031 7.18077C27.9462 6.37057 29.3779 5.96362 30.9983 5.96362C32.4633 5.96362 33.7396 6.34097 34.8273 7.09568C35.9149 7.85038 36.7029 8.89364 37.1913 10.2255V6.19669H41.9193V24.6425H39.6552C38.9005 24.6425 38.3011 24.4168 37.8572 23.9618C37.4132 23.5068 37.1913 22.9037 37.1913 22.1453V20.5804C36.7029 21.9345 35.9149 22.9888 34.8273 23.7435C33.7396 24.4982 32.4633 24.8756 30.9983 24.8756V24.8719ZM32.3301 20.7765C33.1958 20.7765 33.9949 20.5656 34.7274 20.1439C35.4599 19.7222 36.0518 19.1117 36.5106 18.3126C36.9656 17.5135 37.1913 16.548 37.1913 15.4159C37.1913 14.2838 36.9619 13.285 36.5106 12.4859C36.0555 11.6868 35.4636 11.0838 34.7274 10.6694C33.9949 10.2588 33.1958 10.0516 32.3301 10.0516C31.4644 10.0516 30.7245 10.2588 29.9809 10.6694C29.2373 11.0801 28.638 11.6868 28.1829 12.4859C27.7279 13.285 27.5022 14.2617 27.5022 15.4159C27.5022 16.5702 27.7279 17.5135 28.1829 18.3126C28.638 19.1117 29.2373 19.7222 29.9809 20.1439C30.7245 20.5656 31.5051 20.7765 32.3301 20.7765Z" fill="#96FAB9"></path><path d="M46.4808 24.6388V6.19295H51.1755V10.0885C51.4641 9.26725 51.908 8.54584 52.5074 7.92432C53.1067 7.3028 53.8059 6.82187 54.605 6.47411C55.4041 6.13005 56.2254 5.95618 57.0689 5.95618C58.4673 5.95618 59.6918 6.26694 60.7499 6.88846C61.8043 7.50998 62.6182 8.40156 63.199 9.57061C63.7761 10.736 64.0647 12.1418 64.0647 13.7807V24.6351H59.4033V14.6464C59.4033 13.1813 59.0259 12.0345 58.2712 11.2021C57.5165 10.3697 56.5287 9.95166 55.3079 9.95166C54.4866 9.95166 53.7652 10.1662 53.1437 10.5991C52.5222 11.0319 52.0375 11.6275 51.6935 12.3785C51.3494 13.1333 51.1792 13.9989 51.1792 14.9756V24.6314H46.4845L46.4808 24.6388Z" fill="#96FAB9"></path><path d="M75.2483 24.8719C73.9164 24.8719 72.7178 24.6573 71.6523 24.2245C70.5869 23.7917 69.699 23.1886 68.9887 22.4117C68.2784 21.6348 67.7789 20.7691 67.4904 19.8147L71.8854 18.8158C72.0852 19.5483 72.4847 20.1328 73.084 20.5657C73.6834 20.9985 74.3826 21.2131 75.1817 21.2131C76.114 21.2131 76.8169 21.0355 77.2941 20.6804C77.7713 20.3252 78.0118 19.8813 78.0118 19.3485C78.0118 18.8158 77.7602 18.3644 77.2608 18.0685C76.7614 17.7688 76.1176 17.5247 75.3296 17.336C74.5417 17.1473 73.7019 16.9364 72.8177 16.7034C71.9298 16.4703 71.0863 16.1595 70.2872 15.7711C69.4881 15.3826 68.837 14.8499 68.3412 14.1729C67.8418 13.4959 67.5902 12.5895 67.5902 11.4611C67.5902 10.4623 67.8825 9.54109 68.4744 8.69759C69.0627 7.8541 69.8988 7.18819 70.9864 6.69985C72.0741 6.21152 73.3726 5.96735 74.882 5.96735C76.1916 5.96735 77.3459 6.16712 78.3448 6.56667C79.3436 6.96622 80.1649 7.53964 80.8086 8.28325C81.4524 9.02685 81.8963 9.89624 82.1405 10.8951L77.8786 12.0272C77.6788 11.2503 77.3274 10.6583 76.8317 10.244C76.3322 9.83335 75.6367 9.62618 74.7525 9.62618C73.8683 9.62618 73.2653 9.78895 72.8214 10.1071C72.3774 10.429 72.1555 10.8581 72.1555 11.3908C72.1555 11.9236 72.407 12.3712 72.9065 12.6709C73.4059 12.9705 74.0496 13.2258 74.8376 13.4367C75.6256 13.6476 76.4617 13.8695 77.3496 14.1026C78.2375 14.3357 79.0773 14.6501 79.8616 15.0497C80.6459 15.4492 81.2933 15.9931 81.7927 16.6812C82.2922 17.3693 82.54 18.2794 82.54 19.4114C82.54 20.4103 82.2404 21.3241 81.641 22.1565C81.0417 22.9889 80.1982 23.6511 79.1106 24.1394C78.0229 24.6277 76.7355 24.8719 75.2483 24.8719Z" fill="#96FAB9"></path><path d="M86.2026 24.6388V0H90.8973V13.6512C92.0072 13.4293 93.0616 12.9927 94.0604 12.3379C95.0593 11.6831 95.925 10.8359 96.6575 9.79264C97.39 8.74937 97.9005 7.55073 98.1891 6.1967H103.183C102.828 7.61732 102.255 8.93805 101.471 10.1589C100.683 11.3797 99.7651 12.4452 98.7255 13.3553C97.6823 14.2654 96.5946 14.9424 95.4626 15.3863C96.3282 15.6305 97.1939 16.0485 98.0596 16.6368C98.9253 17.225 99.7355 17.9353 100.49 18.7677C101.245 19.6001 101.889 20.5139 102.421 21.5127C102.954 22.5116 103.309 23.5549 103.487 24.6425H98.4925C98.2705 23.6215 97.9042 22.6966 97.3937 21.8642C96.8832 21.0318 96.2875 20.2993 95.6105 19.6667C94.9335 19.034 94.1899 18.5198 93.3797 18.1203C92.5695 17.7207 91.7445 17.4765 90.8973 17.3878V24.6462H86.2026V24.6388Z" fill="#96FAB9"></path><path d="M17.0141 45.5337C16.548 44.6791 15.9153 43.9799 15.1163 43.4361C14.5354 43.0402 13.8991 42.7776 13.2147 42.6481C13.6734 42.5038 14.1063 42.3151 14.5169 42.0895C15.316 41.6455 15.9597 41.024 16.4481 40.2249C16.9364 39.4258 17.1806 38.4713 17.1806 37.3615C17.1806 36.2516 16.8846 35.1825 16.3001 34.2835C15.7119 33.3845 14.8573 32.6742 13.7363 32.1525C12.6154 31.6309 11.2429 31.3719 9.62246 31.3719H0V54.6123H10.022C11.6424 54.6123 13.0223 54.346 14.1692 53.8133C15.3123 53.2805 16.1891 52.5369 16.7995 51.5824C17.41 50.628 17.7133 49.5403 17.7133 48.3195C17.7133 47.3206 17.4802 46.3957 17.0141 45.5411V45.5337ZM4.69469 35.1603H8.92325C10.0109 35.1603 10.8581 35.4155 11.4685 35.9261C12.0789 36.4366 12.3823 37.1469 12.3823 38.057C12.3823 39.0115 12.0752 39.7329 11.4685 40.2212C10.8581 40.7095 10.0072 40.9537 8.92325 40.9537H4.69469V35.1603ZM12.0198 49.9916C11.3982 50.5133 10.5214 50.7759 9.38939 50.7759H4.69469V44.5496H9.2895C10.3994 44.5496 11.2872 44.8308 11.9532 45.3968C12.6191 45.9629 12.952 46.7435 12.952 47.7423C12.952 48.7412 12.6413 49.47 12.0198 49.9916Z" fill="#96FAB9"></path><path d="M30.0031 54.838C28.2273 54.838 26.6328 54.4495 25.2233 53.6726C23.8138 52.8957 22.6928 51.797 21.8604 50.3764C21.028 48.9557 20.61 47.2799 20.61 45.3487C20.61 43.4176 21.0317 41.7491 21.8752 40.3396C22.7187 38.93 23.8619 37.8424 25.3047 37.0766C26.7475 36.3108 28.3568 35.926 30.1326 35.926C31.9083 35.926 33.5102 36.3108 34.9419 37.0766C36.3737 37.8424 37.5094 38.93 38.3529 40.3396C39.1964 41.7491 39.6181 43.4176 39.6181 45.3487C39.6181 47.2799 39.189 48.9557 38.3381 50.3764C37.4835 51.797 36.3293 52.8957 34.8753 53.6726C33.4214 54.4495 31.7936 54.838 29.9957 54.838H30.0031ZM30.0031 50.7426C30.8244 50.7426 31.6013 50.5502 32.3338 50.1581C33.0663 49.7696 33.6656 49.1703 34.1317 48.3601C34.5979 47.5499 34.831 46.5474 34.831 45.3487C34.831 44.1501 34.6016 43.1512 34.1502 42.3521C33.6952 41.553 33.107 40.9611 32.3856 40.5726C31.6642 40.1842 30.891 39.9881 30.0697 39.9881C29.2484 39.9881 28.49 40.1842 27.7908 40.5726C27.0916 40.9611 26.5181 41.5567 26.0742 42.3521C25.6302 43.1512 25.4083 44.1501 25.4083 45.3487C25.4083 46.5474 25.6191 47.5536 26.0409 48.3601C26.4626 49.1703 27.025 49.7696 27.7205 50.1581C28.4197 50.5465 29.1781 50.7426 30.0031 50.7426Z" fill="#96FAB9"></path><path d="M42.6519 49.6439V29.9661H47.3466V49.3442C47.3466 49.8326 47.4908 50.1988 47.7794 50.443C48.068 50.6872 48.412 50.8092 48.8116 50.8092C49.1001 50.8092 49.3443 50.7648 49.5441 50.6761L50.4098 54.2387C49.6329 54.6382 48.745 54.838 47.7461 54.838C46.9248 54.838 46.1183 54.6678 45.334 54.3238C44.546 53.9797 43.9023 53.4248 43.4029 52.659C42.9034 51.8932 42.6556 50.8906 42.6556 49.6439H42.6519Z" fill="#96FAB9"></path><path d="M105.816 27.3894C106.746 27.3894 107.576 27.6966 108.241 28.3103C108.91 28.924 109.245 29.7553 109.245 30.8044C109.245 31.8538 108.91 32.6858 108.241 33.2996C107.573 33.9133 106.762 34.2195 105.816 34.2195C104.869 34.2194 104.084 33.9132 103.419 33.2996C102.751 32.6858 102.415 31.8537 102.415 30.8044C102.415 29.7554 102.751 28.924 103.419 28.3103C104.088 27.6966 104.886 27.3895 105.816 27.3894ZM105.816 29.2898C105.428 29.2899 105.122 29.4287 104.844 29.7058C104.563 29.983 104.421 30.3396 104.421 30.7751C104.421 31.2105 104.56 31.5664 104.844 31.8435C105.125 32.1206 105.448 32.2594 105.816 32.2595C106.203 32.2595 106.533 32.1207 106.804 31.8435C107.075 31.5664 107.211 31.2105 107.211 30.7751C107.211 30.3396 107.075 29.983 106.804 29.7058C106.533 29.4287 106.203 29.2898 105.816 29.2898Z" fill="#96FAB9"></path><path d="M58.7545 33.2992C59.423 32.6855 59.7589 31.8539 59.7589 30.8046C59.7589 29.7553 59.423 28.9238 58.7545 28.31C58.0892 27.6963 57.2592 27.3894 56.3291 27.3894C55.399 27.3894 54.6014 27.6963 53.9329 28.31C53.2643 28.9238 52.9285 29.7553 52.9285 30.8046C52.9285 31.8539 53.2643 32.6855 53.9329 33.2992C54.5981 33.913 55.3829 34.2198 56.3291 34.2198C57.2754 34.2198 58.086 33.913 58.7545 33.2992Z" fill="#96FAB9"></path><path d="M53.9797 54.605V36.1592H58.7077V54.605H53.9797Z" fill="#96FAB9"></path><path d="M86.2026 49.6439V29.9661H90.8972V49.3442C90.8972 49.8326 91.0415 50.1988 91.3301 50.443C91.6187 50.6872 91.9627 50.8092 92.3623 50.8092C92.6508 50.8092 92.895 50.7648 93.0948 50.6761L93.9605 54.2387C93.1836 54.6382 92.2957 54.838 91.2968 54.838C90.4755 54.838 89.669 54.6678 88.881 54.3238C88.093 53.9797 87.4493 53.4248 86.9499 52.659C86.4504 51.8932 86.1989 50.8906 86.1989 49.6439H86.2026Z" fill="#96FAB9"></path><path d="M103.916 54.838C102.295 54.838 100.864 54.4348 99.6207 53.6246C98.3777 52.8144 97.401 51.6934 96.6907 50.2617C95.9804 48.83 95.6252 47.2059 95.6252 45.3857C95.6252 43.5656 95.9804 41.9119 96.6907 40.4913C97.401 39.0706 98.3777 37.9571 99.6207 37.1469C100.864 36.3367 102.295 35.9297 103.916 35.9297C105.381 35.9297 106.657 36.3071 107.745 37.0618C108.833 37.8165 109.621 38.8598 110.109 40.1916V36.1628H114.837V54.6086H112.573C111.818 54.6086 111.219 54.383 110.775 53.9279C110.331 53.4729 110.109 52.8699 110.109 52.1115V50.5466C109.621 51.9006 108.833 52.955 107.745 53.7097C106.657 54.4644 105.381 54.8417 103.916 54.8417V54.838ZM105.248 50.7426C106.113 50.7426 106.912 50.5318 107.645 50.11C108.377 49.6883 108.969 49.0779 109.424 48.2788C109.879 47.4797 110.109 46.5141 110.109 45.382C110.109 44.25 109.879 43.2511 109.424 42.452C108.969 41.6529 108.377 41.0499 107.645 40.6355C106.912 40.2249 106.113 40.0177 105.248 40.0177C104.426 40.0177 103.646 40.2249 102.902 40.6355C102.159 41.0462 101.559 41.6529 101.104 42.452C100.649 43.2511 100.424 44.2278 100.424 45.382C100.424 46.5363 100.649 47.4797 101.104 48.2788C101.559 49.0779 102.159 49.6883 102.902 50.11C103.646 50.5318 104.426 50.7426 105.248 50.7426Z" fill="#96FAB9"></path><path d="M119.028 54.605V36.1591H123.723V40.0547C124.012 39.2334 124.456 38.512 125.055 37.8905C125.654 37.269 126.354 36.7881 127.153 36.4403C127.952 36.0962 128.773 35.9224 129.617 35.9224C131.015 35.9224 132.239 36.2331 133.294 36.8546C134.348 37.4762 135.162 38.3677 135.743 39.5368C136.32 40.7021 136.609 42.108 136.609 43.7469V54.6013H131.947V44.6125C131.947 43.1475 131.57 42.0007 130.815 41.1683C130.06 40.3359 129.073 39.9178 127.852 39.9178C127.031 39.9178 126.309 40.1324 125.688 40.5653C125.066 40.9981 124.581 41.5937 124.237 42.3447C123.893 43.0994 123.719 43.9651 123.719 44.9418V54.5976H119.025L119.028 54.605Z" fill="#96FAB9"></path><path d="M75.8586 57.5793H70.1207C68.4041 57.5793 67.1943 56.8764 67.1943 55.5113C67.1943 54.9083 67.5051 54.3237 67.9194 53.8835C69.2254 54.5198 70.6793 54.8417 72.2886 54.8417C74.0865 54.8417 75.7106 54.4532 77.1682 53.6763C78.6222 52.8994 79.7764 51.8007 80.631 50.38C81.4856 48.9594 81.911 47.2835 81.911 45.3524C81.911 43.4212 81.4893 41.7528 80.6458 40.3432C80.5126 40.1176 80.3646 39.903 80.2167 39.6958C81.6817 38.7709 82.4586 37.5908 82.4586 36.0814C82.4586 35.4192 82.3032 34.6756 81.9887 33.9357H77.775C78.0487 34.5609 78.1671 35.0677 78.1671 35.5746C78.1671 36.1739 77.9636 36.7473 77.516 37.243C77.4235 37.1875 77.331 37.1321 77.2385 37.084C75.8068 36.3182 74.2012 35.9334 72.4292 35.9334C70.6571 35.9334 69.0441 36.3182 67.6013 37.084C66.1585 37.8498 65.0153 38.9374 64.1718 40.3469C63.3283 41.7565 62.9066 43.4249 62.9066 45.3561C62.9066 47.2872 63.3209 48.9631 64.157 50.3837C64.3716 50.7463 64.6047 51.0904 64.8562 51.4122C63.5244 52.5073 62.3665 54.161 62.3665 56.4177C62.3665 60.0099 65.1781 61.8412 68.922 61.8412H73.2542C76.2212 61.8412 76.9241 63.1286 76.9241 64.379C76.9241 65.278 76.4949 66.214 75.8697 66.8392L80.4386 68.049C81.7668 66.5655 82.4697 64.7305 82.4697 63.0139C82.4697 60.1246 80.3609 57.5867 75.8734 57.5867L75.8586 57.5793ZM68.3597 42.3521C68.8036 41.553 69.3771 40.9611 70.0763 40.5726C70.7755 40.1842 71.5339 39.9881 72.3552 39.9881C73.1765 39.9881 73.946 40.1842 74.6711 40.5726C75.3925 40.9611 75.9807 41.5567 76.4357 42.3521C76.8908 43.1512 77.1165 44.1501 77.1165 45.3487C77.1165 46.5473 76.8834 47.5536 76.4172 48.3601C75.9511 49.1703 75.3518 49.7696 74.6193 50.1581C73.8868 50.5465 73.1099 50.7426 72.2886 50.7426C71.4673 50.7426 70.7089 50.5502 70.006 50.1581C69.3068 49.7696 68.7444 49.1703 68.3264 48.3601C67.9046 47.5499 67.6938 46.5473 67.6938 45.3487C67.6938 44.1501 67.9157 43.1512 68.3597 42.3521Z" fill="#96FAB9"></path></svg>