<svg xmlns="http://www.w3.org/2000/svg" width="428" height="150" viewBox="0 0 428 150" fill="none"><path d="M352.051 0H277.051V13.6355H352.051V0Z" fill="#96FAB9"></path><path d="M352.051 27.2742H277.051V40.9097H352.051V27.2742Z" fill="#96FAB9"></path><path d="M352.051 54.5452H277.051V68.1807H352.051V54.5452Z" fill="#96FAB9"></path><path d="M352.051 81.8193H277.051V95.4548H352.051V81.8193Z" fill="#96FAB9"></path><path d="M352.051 109.09H277.051V122.726H352.051V109.09Z" fill="#96FAB9"></path><path d="M352.051 136.365H277.051V150H352.051V136.365Z" fill="#96FAB9"></path><path d="M427.051 13.6355H352.051V27.271H427.051V13.6355Z" fill="#96FAB9"></path><path d="M427.051 40.9097H352.051V54.5452H427.051V40.9097Z" fill="#96FAB9"></path><path d="M427.051 68.1838H352.051V81.8193H427.051V68.1838Z" fill="#96FAB9"></path><path d="M427.051 95.4548H352.051V109.09H427.051V95.4548Z" fill="#96FAB9"></path><path d="M427.051 122.729H352.051V136.365H427.051V122.729Z" fill="#96FAB9"></path><rect width="277" height="150" fill="#00382D"></rect><path d="M63.5 68.9507V43.4321H72.4205C75.1503 43.4321 77.5186 43.9561 79.5294 45.0042C81.5401 46.0522 83.1041 47.539 84.2293 49.4645C85.3505 51.3899 85.911 53.6444 85.911 56.228C85.911 58.8115 85.3505 61.0539 84.2293 62.955C83.1081 64.8561 81.5401 66.3306 79.5294 67.3787C77.5186 68.4267 75.1463 68.9507 72.4205 68.9507H63.5ZM68.6549 64.5636H72.2378C74.9188 64.5636 76.9824 63.8324 78.4326 62.37C79.8828 60.9076 80.6099 58.8603 80.6099 56.228C80.6099 53.5957 79.8828 51.524 78.4326 50.0129C76.9824 48.5017 74.9147 47.7462 72.2378 47.7462H68.6549V64.5636Z" fill="#96FAB9"></path><path d="M97.537 69.2066C95.7578 69.2066 94.1857 68.7638 92.8208 67.8742C91.4559 66.9846 90.3835 65.7538 89.6036 64.1817C88.8236 62.6096 88.4337 60.8263 88.4337 58.8278C88.4337 56.8292 88.8236 55.0134 89.6036 53.4535C90.3835 51.8936 91.4559 50.6709 92.8208 49.7813C94.1857 48.8917 95.7578 48.4448 97.537 48.4448C99.1456 48.4448 100.547 48.8592 101.741 49.6878C102.936 50.5165 103.801 51.6621 104.337 53.1245V48.7007H109.529V68.9548H107.043C106.214 68.9548 105.556 68.707 105.068 68.2073C104.581 67.7077 104.337 67.0455 104.337 66.2128V64.4945C103.801 65.9813 102.936 67.139 101.741 67.9677C100.547 68.7963 99.1456 69.2107 97.537 69.2107V69.2066ZM98.9994 64.7098C99.9499 64.7098 100.827 64.4782 101.632 64.0152C102.436 63.5521 103.086 62.8818 103.59 62.0044C104.089 61.1269 104.337 60.0667 104.337 58.8237C104.337 57.5807 104.085 56.4839 103.59 55.6064C103.09 54.729 102.44 54.0669 101.632 53.6119C100.827 53.161 99.9499 52.9335 98.9994 52.9335C98.0488 52.9335 97.2364 53.161 96.4199 53.6119C95.6034 54.0628 94.9453 54.729 94.4457 55.6064C93.946 56.4839 93.6982 57.5563 93.6982 58.8237C93.6982 60.0911 93.946 61.1269 94.4457 62.0044C94.9453 62.8818 95.6034 63.5521 96.4199 64.0152C97.2364 64.4782 98.0935 64.7098 98.9994 64.7098Z" fill="#96FAB9"></path><path d="M114.537 68.9507V48.6967H119.692V52.9742C120.009 52.0724 120.496 51.2802 121.154 50.5978C121.813 49.9153 122.58 49.3873 123.458 49.0054C124.335 48.6276 125.237 48.4367 126.163 48.4367C127.699 48.4367 129.043 48.7779 130.205 49.4604C131.363 50.1428 132.256 51.1218 132.894 52.4055C133.528 53.6851 133.845 55.2287 133.845 57.0282V68.9467H128.726V57.9788C128.726 56.3702 128.312 55.1109 127.483 54.1969C126.655 53.2829 125.57 52.8239 124.23 52.8239C123.328 52.8239 122.536 53.0595 121.853 53.5347C121.171 54.01 120.639 54.664 120.261 55.4887C119.883 56.3173 119.696 57.2679 119.696 58.3403V68.9426H114.541L114.537 68.9507Z" fill="#96FAB9"></path><path d="M146.125 69.2066C144.662 69.2066 143.346 68.971 142.176 68.4958C141.006 68.0205 140.031 67.3583 139.251 66.5053C138.472 65.6522 137.923 64.7017 137.606 63.6536L142.432 62.5568C142.651 63.3612 143.09 64.003 143.748 64.4783C144.406 64.9535 145.174 65.1891 146.052 65.1891C147.075 65.1891 147.847 64.9942 148.371 64.6042C148.895 64.2142 149.159 63.7267 149.159 63.1418C149.159 62.5568 148.883 62.0613 148.334 61.7363C147.786 61.4072 147.079 61.1391 146.214 60.932C145.349 60.7248 144.427 60.4933 143.456 60.2373C142.481 59.9814 141.555 59.6402 140.677 59.2137C139.8 58.7871 139.085 58.2022 138.541 57.4588C137.992 56.7154 137.716 55.7202 137.716 54.4812C137.716 53.3844 138.037 52.373 138.687 51.4468C139.333 50.5206 140.251 49.7894 141.445 49.2532C142.639 48.717 144.065 48.4489 145.723 48.4489C147.161 48.4489 148.428 48.6682 149.525 49.107C150.621 49.5457 151.523 50.1753 152.23 50.9918C152.937 51.8083 153.424 52.7629 153.692 53.8597L149.013 55.1027C148.794 54.2497 148.408 53.5997 147.863 53.1448C147.315 52.6939 146.551 52.4664 145.58 52.4664C144.609 52.4664 143.947 52.6451 143.46 52.9945C142.972 53.3479 142.729 53.8191 142.729 54.404C142.729 54.989 143.005 55.4805 143.553 55.8096C144.102 56.1386 144.809 56.4189 145.674 56.6504C146.539 56.882 147.457 57.1257 148.432 57.3816C149.407 57.6375 150.329 57.9828 151.19 58.4215C152.051 58.8603 152.762 59.4574 153.311 60.213C153.859 60.9685 154.131 61.9678 154.131 63.2109C154.131 64.3076 153.802 65.311 153.144 66.225C152.486 67.139 151.56 67.8661 150.366 68.4023C149.171 68.9385 147.758 69.2066 146.125 69.2066Z" fill="#96FAB9"></path><path d="M158.153 68.9507V41.8966H163.308V56.886C164.526 56.6423 165.684 56.163 166.781 55.444C167.878 54.725 168.828 53.7947 169.633 52.6492C170.437 51.5037 170.998 50.1875 171.314 48.7008H176.798C176.408 50.2606 175.779 51.7108 174.918 53.0513C174.052 54.3919 173.045 55.5618 171.903 56.5611C170.758 57.5604 169.564 58.3037 168.321 58.7912C169.271 59.0593 170.222 59.5183 171.172 60.1642C172.123 60.8101 173.012 61.5901 173.841 62.504C174.67 63.418 175.377 64.4214 175.961 65.5182C176.546 66.615 176.936 67.7605 177.131 68.9548H171.647C171.404 67.8336 171.002 66.8181 170.441 65.9041C169.88 64.9901 169.226 64.1858 168.483 63.4912C167.74 62.7965 166.923 62.2319 166.034 61.7932C165.144 61.3544 164.238 61.0863 163.308 60.9888V68.9588H158.153V68.9507Z" fill="#96FAB9"></path><path d="M82.182 91.8939C81.6701 90.9556 80.9755 90.1878 80.0981 89.5907C79.4603 89.156 78.7616 88.8676 78.0101 88.7254C78.5138 88.567 78.9891 88.3598 79.44 88.112C80.3174 87.6246 81.0242 86.9421 81.5605 86.0647C82.0967 85.1873 82.3648 84.1392 82.3648 82.9206C82.3648 81.7019 82.0398 80.528 81.398 79.5408C80.7521 78.5537 79.8137 77.7738 78.5829 77.201C77.352 76.6283 75.845 76.3439 74.0657 76.3439H63.5V101.863H74.5044C76.2837 101.863 77.7989 101.57 79.0581 100.985C80.3134 100.4 81.2761 99.5836 81.9464 98.5356C82.6166 97.4875 82.9497 96.2933 82.9497 94.9528C82.9497 93.856 82.6938 92.8404 82.182 91.9021V91.8939ZM68.6549 80.5036H73.298C74.4923 80.5036 75.4225 80.7839 76.0928 81.3445C76.763 81.905 77.0961 82.685 77.0961 83.6843C77.0961 84.7323 76.759 85.5244 76.0928 86.0606C75.4225 86.5969 74.4882 86.865 73.298 86.865H68.6549V80.5036ZM76.698 96.7889C76.0156 97.3616 75.0528 97.65 73.8098 97.65H68.6549V90.8134H73.7001C74.9188 90.8134 75.8937 91.1221 76.6249 91.7436C77.3561 92.3651 77.7217 93.2223 77.7217 94.3191C77.7217 95.4158 77.3805 96.2161 76.698 96.7889Z" fill="#96FAB9"></path><path d="M96.4442 102.11C94.4944 102.11 92.7436 101.684 91.1959 100.831C89.6482 99.9776 88.4174 98.7712 87.5034 97.2113C86.5894 95.6514 86.1304 93.8113 86.1304 91.6908C86.1304 89.5703 86.5935 87.7383 87.5196 86.1906C88.4458 84.6429 89.701 83.4486 91.2853 82.6078C92.8695 81.7669 94.6366 81.3444 96.5864 81.3444C98.5363 81.3444 100.295 81.7669 101.867 82.6078C103.439 83.4486 104.686 84.6429 105.613 86.1906C106.539 87.7383 107.002 89.5703 107.002 91.6908C107.002 93.8113 106.531 95.6514 105.596 97.2113C104.658 98.7712 103.391 99.9776 101.794 100.831C100.198 101.684 98.4103 102.11 96.4361 102.11H96.4442ZM96.4442 97.6135C97.346 97.6135 98.1991 97.4022 99.0034 96.9716C99.8077 96.5451 100.466 95.887 100.978 94.9974C101.489 94.1078 101.745 93.0069 101.745 91.6908C101.745 90.3747 101.494 89.2779 100.998 88.4004C100.498 87.523 99.8524 86.8731 99.0603 86.4465C98.2682 86.02 97.4192 85.8047 96.5174 85.8047C95.6156 85.8047 94.7828 86.02 94.0151 86.4465C93.2473 86.8731 92.6177 87.5271 92.1302 88.4004C91.6428 89.2779 91.399 90.3747 91.399 91.6908C91.399 93.0069 91.6306 94.1119 92.0937 94.9974C92.5567 95.887 93.1742 96.5451 93.9379 96.9716C94.7056 97.3982 95.5384 97.6135 96.4442 97.6135Z" fill="#96FAB9"></path><path d="M110.333 96.407V74.8003H115.488V96.078C115.488 96.6142 115.646 97.0164 115.963 97.2845C116.28 97.5526 116.658 97.6866 117.096 97.6866C117.413 97.6866 117.681 97.6379 117.901 97.5404L118.851 101.452C117.998 101.891 117.023 102.11 115.927 102.11C115.025 102.11 114.139 101.923 113.278 101.546C112.413 101.168 111.706 100.559 111.158 99.7177C110.609 98.8768 110.337 97.776 110.337 96.407H110.333Z" fill="#96FAB9"></path><path d="M125.404 79.1509C124.38 79.1509 123.527 78.8421 122.844 78.2206C122.162 77.5991 121.821 76.8273 121.821 75.9011C121.821 74.9749 122.162 74.195 122.844 73.5613C123.527 72.9276 124.38 72.6108 125.404 72.6108C126.427 72.6108 127.28 72.9276 127.963 73.5613C128.645 74.195 128.986 74.9749 128.986 75.9011C128.986 76.8273 128.645 77.5991 127.963 78.2206C127.28 78.8421 126.427 79.1509 125.404 79.1509ZM122.771 101.854V81.6004H127.963V101.854H122.771Z" fill="#96FAB9"></path><path d="M158.153 96.407V74.8003H163.308V96.078C163.308 96.6142 163.466 97.0164 163.783 97.2845C164.1 97.5526 164.478 97.6866 164.916 97.6866C165.233 97.6866 165.501 97.6379 165.721 97.5404L166.671 101.452C165.818 101.891 164.843 102.11 163.747 102.11C162.845 102.11 161.959 101.923 161.094 101.546C160.229 101.168 159.522 100.559 158.973 99.7177C158.425 98.8768 158.149 97.776 158.149 96.407H158.153Z" fill="#96FAB9"></path><path d="M177.603 102.11C175.823 102.11 174.251 101.668 172.886 100.778C171.522 99.8883 170.449 98.6574 169.669 97.0854C168.889 95.5133 168.499 93.73 168.499 91.7314C168.499 89.7328 168.889 87.917 169.669 86.3572C170.449 84.7973 171.522 83.5746 172.886 82.685C174.251 81.7953 175.823 81.3485 177.603 81.3485C179.211 81.3485 180.613 81.7628 181.807 82.5915C183.001 83.4202 183.866 84.5657 184.403 86.0281V81.6044H189.594V101.858H187.108C186.279 101.858 185.621 101.611 185.134 101.111C184.646 100.611 184.403 99.9492 184.403 99.1165V97.3982C183.866 98.8849 183.001 100.043 181.807 100.871C180.613 101.7 179.211 102.114 177.603 102.114V102.11ZM179.065 97.6135C180.016 97.6135 180.893 97.3819 181.697 96.9188C182.502 96.4557 183.152 95.7855 183.651 94.908C184.151 94.0306 184.403 92.9704 184.403 91.7274C184.403 90.4843 184.151 89.3875 183.651 88.5101C183.152 87.6327 182.502 86.9705 181.697 86.5156C180.893 86.0647 180.016 85.8372 179.065 85.8372C178.163 85.8372 177.306 86.0647 176.49 86.5156C175.673 86.9665 175.015 87.6327 174.515 88.5101C174.016 89.3875 173.768 90.46 173.768 91.7274C173.768 92.9948 174.016 94.0306 174.515 94.908C175.015 95.7855 175.673 96.4557 176.49 96.9188C177.306 97.3819 178.163 97.6135 179.065 97.6135ZM184.001 75.6411C184.001 76.9329 183.578 77.9566 182.737 78.7121C181.896 79.4677 180.877 79.8455 179.687 79.8455C178.496 79.8455 177.509 79.4677 176.672 78.7121C175.831 77.9566 175.409 76.9329 175.409 75.6411C175.409 74.3494 175.831 73.3257 176.672 72.5701C177.513 71.8146 178.517 71.4368 179.687 71.4368C180.856 71.4368 181.9 71.8146 182.737 72.5701C183.578 73.3257 184.001 74.3494 184.001 75.6411ZM181.441 75.6046C181.441 75.0684 181.271 74.6296 180.93 74.2884C180.588 73.9472 180.174 73.7766 179.687 73.7766C179.199 73.7766 178.813 73.9472 178.464 74.2884C178.11 74.6296 177.932 75.0684 177.932 75.6046C177.932 76.1408 178.106 76.5795 178.464 76.9207C178.817 77.2619 179.223 77.4326 179.687 77.4326C180.174 77.4326 180.588 77.2619 180.93 76.9207C181.271 76.5795 181.441 76.1408 181.441 75.6046Z" fill="#96FAB9"></path><path d="M194.196 101.854V81.6003H199.351V85.8778C199.668 84.976 200.156 84.1839 200.814 83.5014C201.472 82.819 202.24 82.2909 203.117 81.9091C203.994 81.5313 204.896 81.3404 205.822 81.3404C207.358 81.3404 208.703 81.6816 209.86 82.364C211.018 83.0465 211.912 84.0255 212.549 85.3091C213.183 86.5887 213.5 88.1323 213.5 89.9319V101.85H208.382V90.8824C208.382 89.2738 207.967 88.0145 207.139 87.1005C206.31 86.1865 205.225 85.7275 203.885 85.7275C202.983 85.7275 202.191 85.9631 201.508 86.4384C200.826 86.9137 200.294 87.5677 199.916 88.3923C199.538 89.221 199.347 90.1715 199.347 91.244V101.846H194.192L194.196 101.854Z" fill="#96FAB9"></path><path d="M146.795 105.12H140.494C138.61 105.12 137.281 104.349 137.281 102.85C137.281 102.187 137.623 101.546 138.077 101.062C139.511 101.761 141.108 102.114 142.875 102.114C144.849 102.114 146.632 101.688 148.233 100.835C149.829 99.9817 151.097 98.7752 152.035 97.2154C152.974 95.6555 153.441 93.8153 153.441 91.6949C153.441 89.5744 152.978 87.7424 152.051 86.1947C151.905 85.9469 151.743 85.7113 151.58 85.4838C153.189 84.4682 154.042 83.1724 154.042 81.515C154.042 80.7879 153.871 79.9714 153.526 79.159H148.899C149.2 79.8455 149.33 80.402 149.33 80.9585C149.33 81.6166 149.106 82.2462 148.615 82.7906C148.513 82.7296 148.412 82.6687 148.31 82.6159C146.738 81.775 144.975 81.3525 143.029 81.3525C141.084 81.3525 139.312 81.775 137.728 82.6159C136.144 83.4568 134.889 84.651 133.963 86.1987C133.036 87.7464 132.573 89.5785 132.573 91.6989C132.573 93.8194 133.028 95.6595 133.946 97.2194C134.182 97.6175 134.438 97.9953 134.714 98.3487C133.252 99.5511 131.98 101.367 131.98 103.845C131.98 107.789 135.067 109.8 139.178 109.8H143.935C147.193 109.8 147.965 111.214 147.965 112.587C147.965 113.574 147.494 114.601 146.807 115.288L151.824 116.616C153.282 114.987 154.054 112.973 154.054 111.088C154.054 107.915 151.739 105.128 146.811 105.128L146.795 105.12ZM138.561 88.4004C139.048 87.523 139.678 86.873 140.446 86.4465C141.213 86.02 142.046 85.8047 142.948 85.8047C143.85 85.8047 144.695 86.02 145.491 86.4465C146.283 86.873 146.929 87.5271 147.429 88.4004C147.928 89.2779 148.176 90.3746 148.176 91.6908C148.176 93.0069 147.92 94.1119 147.408 94.9974C146.896 95.887 146.238 96.5451 145.434 96.9716C144.63 97.3982 143.777 97.6135 142.875 97.6135C141.973 97.6135 141.14 97.4022 140.369 96.9716C139.601 96.5451 138.983 95.887 138.524 94.9974C138.061 94.1078 137.83 93.0069 137.83 91.6908C137.83 90.3746 138.073 89.2779 138.561 88.4004Z" fill="#96FAB9"></path></svg>
