<svg width="150" height="150" viewBox="0 0 150 150" fill="none" xmlns="http://www.w3.org/2000/svg">
<path d="M75 0H0V13.6355H75V0Z" fill="#96FAB9"/>
<path d="M75 27.2742H0V40.9097H75V27.2742Z" fill="#96FAB9"/>
<path d="M75 54.5452H0V68.1807H75V54.5452Z" fill="#96FAB9"/>
<path d="M75 81.8193H0V95.4548H75V81.8193Z" fill="#96FAB9"/>
<path d="M75 109.09H0V122.726H75V109.09Z" fill="#96FAB9"/>
<path d="M75 136.365H0V150H75V136.365Z" fill="#96FAB9"/>
<path d="M150 13.6355H75V27.271H150V13.6355Z" fill="#96FAB9"/>
<path d="M150 40.9097H75V54.5452H150V40.9097Z" fill="#96FAB9"/>
<path d="M150 68.1838H75V81.8193H150V68.1838Z" fill="#96FAB9"/>
<path d="M150 95.4548H75V109.09H150V95.4548Z" fill="#96FAB9"/>
<path d="M150 122.729H75V136.365H150V122.729Z" fill="#96FAB9"/>
</svg>
