<svg width="150" height="75" viewBox="0 0 150 75" fill="none" xmlns="http://www.w3.org/2000/svg">
<path d="M0 27.0541V1.53552H8.92055C11.6503 1.53552 14.0186 2.05954 16.0294 3.10759C18.0401 4.15563 19.6041 5.64239 20.7293 7.56786C21.8505 9.49333 22.411 11.7478 22.411 14.3314C22.411 16.9149 21.8505 19.1573 20.7293 21.0584C19.6081 22.9595 18.0401 24.434 16.0294 25.4821C14.0186 26.5301 11.6463 27.0541 8.92055 27.0541H0ZM5.15491 22.667H8.73775C11.4188 22.667 13.4824 21.9358 14.9326 20.4734C16.3828 19.011 17.1099 16.9637 17.1099 14.3314C17.1099 11.6991 16.3828 9.62738 14.9326 8.11625C13.4824 6.60512 11.4147 5.84956 8.73775 5.84956H5.15491V22.667Z" fill="#96FAB9"/>
<path d="M34.037 27.31C32.2578 27.31 30.6857 26.8672 29.3208 25.9776C27.9559 25.088 26.8835 23.8572 26.1036 22.2851C25.3236 20.713 24.9337 18.9297 24.9337 16.9311C24.9337 14.9326 25.3236 13.1168 26.1036 11.5569C26.8835 9.99701 27.9559 8.77429 29.3208 7.88467C30.6857 6.99506 32.2578 6.54822 34.037 6.54822C35.6456 6.54822 37.0471 6.96256 38.2414 7.79124C39.4356 8.61993 40.3009 9.76546 40.8371 11.2278V6.80413H46.0286V27.0582H43.5425C42.7138 27.0582 42.0557 26.8104 41.5683 26.3107C41.0808 25.8111 40.8371 25.1489 40.8371 24.3162V22.5979C40.3009 24.0846 39.4356 25.2424 38.2414 26.0711C37.0471 26.8997 35.6456 27.3141 34.037 27.3141V27.31ZM35.4994 22.8132C36.4499 22.8132 37.3274 22.5816 38.1317 22.1186C38.936 21.6555 39.5859 20.9852 40.0896 20.1078C40.5893 19.2303 40.8371 18.1701 40.8371 16.9271C40.8371 15.6841 40.5852 14.5873 40.0896 13.7098C39.59 12.8324 38.9401 12.1703 38.1317 11.7153C37.3274 11.2644 36.4499 11.0369 35.4994 11.0369C34.5488 11.0369 33.7364 11.2644 32.9199 11.7153C32.1034 12.1662 31.4453 12.8324 30.9457 13.7098C30.446 14.5873 30.1982 15.6597 30.1982 16.9271C30.1982 18.1945 30.446 19.2303 30.9457 20.1078C31.4453 20.9852 32.1034 21.6555 32.9199 22.1186C33.7364 22.5816 34.5935 22.8132 35.4994 22.8132Z" fill="#96FAB9"/>
<path d="M51.0372 27.0541V6.80009H56.1921V11.0776C56.5089 10.1758 56.9964 9.38364 57.6545 8.70119C58.3125 8.01874 59.0803 7.49066 59.9577 7.10882C60.8352 6.73103 61.7369 6.54011 62.6631 6.54011C64.1986 6.54011 65.5432 6.88133 66.705 7.56378C67.8627 8.24623 68.7564 9.22521 69.3942 10.5089C70.0279 11.7884 70.3447 13.3321 70.3447 15.1316V27.0501H65.2264V16.0822C65.2264 14.4735 64.812 13.2143 63.9833 12.3003C63.1547 11.3863 62.0701 10.9273 60.7295 10.9273C59.8277 10.9273 59.0356 11.1629 58.3532 11.6381C57.6707 12.1134 57.1386 12.7674 56.7608 13.5921C56.383 14.4207 56.1961 15.3713 56.1961 16.4437V27.046H51.0412L51.0372 27.0541Z" fill="#96FAB9"/>
<path d="M82.6247 27.31C81.1623 27.31 79.8461 27.0744 78.6762 26.5991C77.5063 26.1239 76.5314 25.4617 75.7514 24.6087C74.9715 23.7556 74.4231 22.8051 74.1063 21.757L78.9321 20.6602C79.1515 21.4646 79.5902 22.1064 80.2483 22.5816C80.9064 23.0569 81.6741 23.2925 82.5515 23.2925C83.5752 23.2925 84.347 23.0975 84.871 22.7076C85.3951 22.3176 85.6591 21.8301 85.6591 21.2452C85.6591 20.6602 85.3829 20.1647 84.8345 19.8397C84.2861 19.5106 83.5793 19.2425 82.714 19.0354C81.8488 18.8282 80.9267 18.5967 79.9558 18.3407C78.9809 18.0848 78.0547 17.7436 77.1773 17.3171C76.2998 16.8905 75.5849 16.3056 75.0406 15.5622C74.4922 14.8188 74.2159 13.8236 74.2159 12.5846C74.2159 11.4878 74.5369 10.4764 75.1868 9.55018C75.8327 8.624 76.7507 7.89281 77.945 7.3566C79.1393 6.82039 80.5651 6.55229 82.2225 6.55229C83.6605 6.55229 84.9279 6.77165 86.0247 7.21036C87.1215 7.64908 88.0233 8.27871 88.7301 9.09521C89.4369 9.91171 89.9244 10.8663 90.1925 11.9631L85.5129 13.2061C85.2935 12.3531 84.9076 11.7031 84.3633 11.2482C83.8149 10.7973 83.0512 10.5698 82.0803 10.5698C81.1095 10.5698 80.4473 10.7485 79.9599 11.0979C79.4724 11.4513 79.2287 11.9225 79.2287 12.5074C79.2287 13.0924 79.5049 13.5839 80.0533 13.913C80.6017 14.242 81.3085 14.5223 82.1738 14.7538C83.039 14.9854 83.9571 15.2291 84.932 15.485C85.9069 15.7409 86.829 16.0862 87.6902 16.5249C88.5514 16.9637 89.2623 17.5608 89.8106 18.3164C90.359 19.0719 90.6312 20.0712 90.6312 21.3142C90.6312 22.411 90.3022 23.4144 89.6441 24.3284C88.986 25.2424 88.0599 25.9695 86.8656 26.5057C85.6713 27.0419 84.2576 27.31 82.6247 27.31Z" fill="#96FAB9"/>
<path d="M94.6529 27.0541V0H99.8078V14.9894C101.026 14.7457 102.184 14.2664 103.281 13.5474C104.378 12.8284 105.328 11.8981 106.133 10.7526C106.937 9.60706 107.498 8.29091 107.814 6.80415H113.298C112.908 8.36403 112.279 9.81423 111.418 11.1547C110.552 12.4953 109.545 13.6652 108.403 14.6645C107.258 15.6638 106.064 16.4071 104.821 16.8946C105.771 17.1627 106.722 17.6217 107.672 18.2676C108.623 18.9135 109.512 19.6934 110.341 20.6074C111.17 21.5214 111.877 22.5248 112.461 23.6216C113.046 24.7184 113.436 25.8639 113.631 27.0582H108.147C107.904 25.937 107.502 24.9215 106.941 24.0075C106.38 23.0935 105.726 22.2892 104.983 21.5945C104.24 20.8999 103.423 20.3353 102.534 19.8966C101.644 19.4578 100.738 19.1897 99.8078 19.0922V27.0622H94.6529V27.0541Z" fill="#96FAB9"/>
<path d="M18.682 49.9973C18.1701 49.059 17.4755 48.2912 16.5981 47.6941C15.9603 47.2594 15.2616 46.971 14.5101 46.8288C15.0138 46.6704 15.4891 46.4632 15.94 46.2154C16.8174 45.728 17.5242 45.0455 18.0605 44.1681C18.5967 43.2907 18.8648 42.2426 18.8648 41.024C18.8648 39.8053 18.5398 38.6314 17.898 37.6442C17.2521 36.6571 16.3137 35.8772 15.0829 35.3044C13.852 34.7317 12.345 34.4473 10.5657 34.4473H0V59.9659H11.0044C12.7837 59.9659 14.2989 59.6734 15.5581 59.0885C16.8134 58.5035 17.7761 57.687 18.4464 56.639C19.1166 55.5909 19.4497 54.3967 19.4497 53.0562C19.4497 51.9594 19.1938 50.9438 18.682 50.0055V49.9973ZM5.15491 38.607H9.79798C10.9923 38.607 11.9225 38.8873 12.5928 39.4478C13.263 40.0084 13.5961 40.7884 13.5961 41.7877C13.5961 42.8357 13.259 43.6278 12.5928 44.164C11.9225 44.7002 10.9882 44.9683 9.79798 44.9683H5.15491V38.607ZM13.198 54.8923C12.5156 55.465 11.5528 55.7534 10.3098 55.7534H5.15491V48.9168H10.2001C11.4188 48.9168 12.3937 49.2255 13.1249 49.847C13.8561 50.4685 14.2217 51.3257 14.2217 52.4225C14.2217 53.5192 13.8805 54.3195 13.198 54.8923Z" fill="#96FAB9"/>
<path d="M32.9442 60.2137C30.9944 60.2137 29.2436 59.7872 27.6959 58.9341C26.1482 58.081 24.9174 56.8746 24.0034 55.3147C23.0894 53.7548 22.6304 51.9147 22.6304 49.7942C22.6304 47.6737 23.0935 45.8417 24.0196 44.294C24.9458 42.7463 26.201 41.552 27.7853 40.7112C29.3695 39.8703 31.1366 39.4478 33.0864 39.4478C35.0363 39.4478 36.7952 39.8703 38.3673 40.7112C39.9393 41.552 41.1864 42.7463 42.1126 44.294C43.0388 45.8417 43.5018 47.6737 43.5018 49.7942C43.5018 51.9147 43.0306 53.7548 42.0963 55.3147C41.158 56.8746 39.8906 58.081 38.2941 58.9341C36.6977 59.7872 34.9103 60.2137 32.9361 60.2137H32.9442ZM32.9442 55.7169C33.846 55.7169 34.6991 55.5056 35.5034 55.075C36.3077 54.6485 36.9658 53.9904 37.4776 53.1008C37.9895 52.2112 38.2454 51.1103 38.2454 49.7942C38.2454 48.4781 37.9935 47.3813 37.4979 46.5038C36.9983 45.6264 36.3524 44.9765 35.5603 44.5499C34.7682 44.1234 33.9192 43.9081 33.0174 43.9081C32.1156 43.9081 31.2828 44.1234 30.5151 44.5499C29.7473 44.9765 29.1177 45.6305 28.6302 46.5038C28.1428 47.3813 27.899 48.4781 27.899 49.7942C27.899 51.1103 28.1306 52.2153 28.5937 53.1008C29.0567 53.9904 29.6742 54.6485 30.4379 55.075C31.2056 55.5016 32.0384 55.7169 32.9442 55.7169Z" fill="#96FAB9"/>
<path d="M46.8329 54.5104V32.9037H51.9878V54.1814C51.9878 54.7176 52.1462 55.1198 52.4631 55.3879C52.7799 55.656 53.1577 55.79 53.5964 55.79C53.9133 55.79 54.1814 55.7413 54.4007 55.6438L55.3513 59.5557C54.4982 59.9944 53.5233 60.2137 52.4265 60.2137C51.5247 60.2137 50.6391 60.0269 49.778 59.6491C48.9127 59.2713 48.2059 58.662 47.6575 57.8211C47.1091 56.9802 46.8369 55.8794 46.8369 54.5104H46.8329Z" fill="#96FAB9"/>
<path d="M61.9036 37.2543C60.8799 37.2543 60.0269 36.9455 59.3444 36.324C58.662 35.7025 58.3207 34.9307 58.3207 34.0045C58.3207 33.0783 58.662 32.2984 59.3444 31.6647C60.0269 31.031 60.8799 30.7142 61.9036 30.7142C62.9272 30.7142 63.7803 31.031 64.4628 31.6647C65.1452 32.2984 65.4864 33.0783 65.4864 34.0045C65.4864 34.9307 65.1452 35.7025 64.4628 36.324C63.7803 36.9455 62.9272 37.2543 61.9036 37.2543ZM59.2713 59.9578V39.7038H64.4628V59.9578H59.2713Z" fill="#96FAB9"/>
<path d="M94.6529 54.5104V32.9037H99.8078V54.1814C99.8078 54.7176 99.9663 55.1198 100.283 55.3879C100.6 55.656 100.978 55.79 101.416 55.79C101.733 55.79 102.001 55.7413 102.221 55.6438L103.171 59.5557C102.318 59.9944 101.343 60.2137 100.247 60.2137C99.3447 60.2137 98.4592 60.0269 97.5939 59.6491C96.7287 59.2713 96.0219 58.662 95.4735 57.8211C94.9251 56.9802 94.6489 55.8794 94.6489 54.5104H94.6529Z" fill="#96FAB9"/>
<path d="M114.103 60.2137C112.323 60.2137 110.751 59.7709 109.386 58.8813C108.022 57.9917 106.949 56.7608 106.169 55.1888C105.389 53.6167 104.999 51.8334 104.999 49.8348C104.999 47.8362 105.389 46.0204 106.169 44.4606C106.949 42.9007 108.022 41.678 109.386 40.7883C110.751 39.8987 112.323 39.4519 114.103 39.4519C115.711 39.4519 117.113 39.8662 118.307 40.6949C119.501 41.5236 120.366 42.6691 120.903 44.1315V39.7078H126.094V59.9618H123.608C122.779 59.9618 122.121 59.714 121.634 59.2144C121.146 58.7147 120.903 58.0526 120.903 57.2199V55.5016C120.366 56.9883 119.501 58.146 118.307 58.9747C117.113 59.8034 115.711 60.2178 114.103 60.2178V60.2137ZM115.565 55.7169C116.516 55.7169 117.393 55.4853 118.197 55.0222C119.002 54.5591 119.652 53.8889 120.151 53.0114C120.651 52.134 120.903 51.0738 120.903 49.8308C120.903 48.5877 120.651 47.4909 120.151 46.6135C119.652 45.7361 119.002 45.0739 118.197 44.619C117.393 44.1681 116.516 43.9406 115.565 43.9406C114.663 43.9406 113.806 44.1681 112.99 44.619C112.173 45.0699 111.515 45.7361 111.015 46.6135C110.516 47.4909 110.268 48.5634 110.268 49.8308C110.268 51.0982 110.516 52.134 111.015 53.0114C111.515 53.8889 112.173 54.5591 112.99 55.0222C113.806 55.4853 114.663 55.7169 115.565 55.7169ZM120.501 33.7445C120.501 35.0363 120.078 36.06 119.237 36.8155C118.396 37.5711 117.377 37.9489 116.187 37.9489C114.996 37.9489 114.009 37.5711 113.172 36.8155C112.331 36.06 111.909 35.0363 111.909 33.7445C111.909 32.4528 112.331 31.4291 113.172 30.6735C114.013 29.918 115.017 29.5402 116.187 29.5402C117.356 29.5402 118.4 29.918 119.237 30.6735C120.078 31.4291 120.501 32.4528 120.501 33.7445ZM117.941 33.708C117.941 33.1718 117.771 32.733 117.43 32.3918C117.088 32.0506 116.674 31.88 116.187 31.88C115.699 31.88 115.313 32.0506 114.964 32.3918C114.61 32.733 114.432 33.1718 114.432 33.708C114.432 34.2442 114.606 34.6829 114.964 35.0241C115.317 35.3653 115.723 35.536 116.187 35.536C116.674 35.536 117.088 35.3653 117.43 35.0241C117.771 34.6829 117.941 34.2442 117.941 33.708Z" fill="#96FAB9"/>
<path d="M130.696 59.9578V39.7037H135.851V43.9812C136.168 43.0794 136.656 42.2873 137.314 41.6048C137.972 40.9224 138.74 40.3943 139.617 40.0125C140.494 39.6347 141.396 39.4438 142.322 39.4438C143.858 39.4438 145.203 39.785 146.36 40.4674C147.518 41.1499 148.412 42.1289 149.049 43.4125C149.683 44.6921 150 46.2357 150 48.0353V59.9537H144.882V48.9858C144.882 47.3772 144.467 46.1179 143.639 45.2039C142.81 44.2899 141.725 43.8309 140.385 43.8309C139.483 43.8309 138.691 44.0665 138.008 44.5418C137.326 45.0171 136.794 45.6711 136.416 46.4957C136.038 47.3244 135.847 48.2749 135.847 49.3474V59.9496H130.692L130.696 59.9578Z" fill="#96FAB9"/>
<path d="M83.2949 63.2238H76.9945C75.1096 63.2238 73.7813 62.4519 73.7813 60.953C73.7813 60.2909 74.1225 59.649 74.5775 59.1656C76.0114 59.8643 77.6079 60.2177 79.3749 60.2177C81.3491 60.2177 83.1324 59.7912 84.7329 58.9382C86.3294 58.0851 87.5968 56.8786 88.5351 55.3188C89.4735 53.7589 89.9407 51.9187 89.9407 49.7983C89.9407 47.6778 89.4776 45.8458 88.5514 44.2981C88.4052 44.0503 88.2427 43.8147 88.0802 43.5872C89.6888 42.5716 90.5419 41.2758 90.5419 39.6184C90.5419 38.8913 90.3712 38.0748 90.026 37.2624H85.3991C85.6997 37.9489 85.8297 38.5054 85.8297 39.0619C85.8297 39.72 85.6063 40.3496 85.1148 40.894C85.0132 40.833 84.9117 40.7721 84.8101 40.7193C83.2381 39.8784 81.4751 39.4559 79.5293 39.4559C77.5835 39.4559 75.8124 39.8784 74.2281 40.7193C72.6439 41.5602 71.3887 42.7544 70.4625 44.3021C69.5363 45.8498 69.0732 47.6819 69.0732 49.8023C69.0732 51.9228 69.5282 53.7629 70.4463 55.3228C70.6819 55.7209 70.9378 56.0987 71.214 56.4521C69.7516 57.6545 68.4802 59.4703 68.4802 61.9482C68.4802 65.8926 71.5674 67.9034 75.6783 67.9034H80.4352C83.693 67.9034 84.4648 69.317 84.4648 70.69C84.4648 71.6772 83.9936 72.7049 83.3071 73.3914L88.3239 74.7197C89.7822 73.0908 90.554 71.0759 90.554 69.1911C90.554 66.0185 88.2386 63.2319 83.3112 63.2319L83.2949 63.2238ZM75.0609 46.5038C75.5484 45.6264 76.178 44.9764 76.9457 44.5499C77.7135 44.1234 78.5462 43.9081 79.448 43.9081C80.3499 43.9081 81.1948 44.1234 81.991 44.5499C82.7831 44.9764 83.429 45.6305 83.9286 46.5038C84.4283 47.3813 84.6761 48.478 84.6761 49.7942C84.6761 51.1103 84.4202 52.2153 83.9083 53.1008C83.3965 53.9904 82.7384 54.6485 81.9341 55.075C81.1298 55.5016 80.2767 55.7169 79.3749 55.7169C78.4731 55.7169 77.6404 55.5056 76.8686 55.075C76.1008 54.6485 75.4834 53.9904 75.0243 53.1008C74.5612 52.2112 74.3297 51.1103 74.3297 49.7942C74.3297 48.478 74.5734 47.3813 75.0609 46.5038Z" fill="#96FAB9"/>
</svg>
