<svg width="162" height="31" viewBox="0 0 162 31" fill="none" xmlns="http://www.w3.org/2000/svg">
<g clip-path="url(#clip0_2032_426)">
<path d="M30.2472 0H0V30.2472H30.2472V0Z" fill="#219653"/>
<path d="M63.0151 0H32.7678V30.2472H63.0151V0Z" fill="#219653"/>
<path d="M95.783 0H65.5358V30.2472H95.783V0Z" fill="#219653"/>
<path d="M128.551 0H98.3036V30.2472H128.551V0Z" fill="#219653"/>
<path d="M161.319 0H131.071V30.2472H161.319V0Z" fill="#219653"/>
<path d="M15.1233 20.3849L19.7234 19.2191L21.6453 25.1426L15.1233 20.3849ZM25.7098 12.7286H17.6124L15.1233 5.10376L12.6342 12.7286H4.53674L11.0903 17.4547L8.60122 25.0795L15.1548 20.3534L19.1878 17.4547L25.7098 12.7286Z" fill="white"/>
<path d="M47.8911 20.3849L52.4912 19.2191L54.4131 25.1426L47.8911 20.3849ZM58.4776 12.7286H50.3802L47.8911 5.10376L45.402 12.7286H37.3045L43.8581 17.4547L41.369 25.0795L47.9226 20.3534L51.9555 17.4547L58.4776 12.7286Z" fill="white"/>
<path d="M80.6589 20.3849L85.259 19.2191L87.1809 25.1426L80.6589 20.3849ZM91.2454 12.7286H83.148L80.6589 5.10376L78.1698 12.7286H70.0723L76.6259 17.4547L74.1368 25.0795L80.6904 20.3534L84.7233 17.4547L91.2454 12.7286Z" fill="white"/>
<path d="M113.427 20.3849L118.027 19.2191L119.949 25.1426L113.427 20.3849ZM124.013 12.7286H115.916L113.427 5.10376L110.938 12.7286H102.84L109.394 17.4547L106.905 25.0795L113.458 20.3534L117.491 17.4547L124.013 12.7286Z" fill="white"/>
<path d="M146.195 20.3849L150.795 19.2191L152.717 25.1426L146.195 20.3849ZM156.781 12.7286H148.684L146.195 5.10376L143.706 12.7286H135.608L142.162 17.4547L139.673 25.0795L146.226 20.3534L150.259 17.4547L156.781 12.7286Z" fill="white"/>
</g>
<defs>
<clipPath id="clip0_2032_426">
<rect width="161.319" height="30.2472" fill="white"/>
</clipPath>
</defs>
</svg>
