<svg xmlns="http://www.w3.org/2000/svg" width="959" height="274" viewBox="0 0 959 274" fill="none">
  <path fill="#0272DB" d="M137 0H0v24.897h137zm0 49.804H0V74.7h137zm0 49.793H0v24.897h137zm0 49.803H0v24.897h137zm0 49.804H0V224.1h137zm0 49.592H0v24.897h137zM274 24.897H137v24.896h137zm0 49.803H137v24.897h137zm0 49.804H137v24.897h137zm0 49.804H137v24.896h137zm0 49.793H137v24.896h137zM411 99.597H274v24.897h137zm0 49.803H274v24.897h137zm0 49.804H274V224.1h137zm0 49.803H274v24.897h137zm137-74.699H411v24.896h137zm0 49.793H411v24.896h137zm137-24.897H548V224.1h137zm0 49.803H548v24.897h137zm137-24.906H685v24.896h137zm137 24.906H822v24.897h137z"/>
  <path fill="#0272DB" d="M548 174.001H137v99.692h411z"/>
  <path fill="#FDFFE6" d="M217.5 236.995v-23.091h8.072q3.704 0 6.433 1.422 2.727 1.423 4.252 4.036 1.522 2.614 1.522 6.12t-1.522 6.087-4.252 4.003c-1.82.949-3.967 1.423-6.433 1.423zm4.665-3.97h3.242q3.638 0 5.605-1.985 1.969-1.985 1.97-5.558-.001-3.572-1.97-5.623t-5.605-2.052h-3.242zm26.134 4.202q-2.415 0-4.268-1.206-1.852-1.208-2.911-3.341t-1.058-4.845c0-1.808.352-3.451 1.058-4.863q1.059-2.116 2.911-3.323 1.853-1.208 4.268-1.209 2.183 0 3.804 1.125 1.622 1.125 2.349 3.109v-4.002h4.698v18.327h-2.25q-1.125.001-1.786-.676c-.441-.453-.662-1.052-.662-1.805v-1.555q-.728 2.018-2.349 3.143-1.62 1.124-3.804 1.124zm1.323-4.069q1.29 0 2.382-.629 1.09-.628 1.772-1.819.677-1.191.676-2.878c0-1.125-.228-2.118-.676-2.912q-.676-1.19-1.772-1.804a4.8 4.8 0 0 0-2.382-.614c-.86 0-1.595.205-2.334.614q-1.108.612-1.786 1.804-.678 1.191-.677 2.912c0 1.146.225 2.084.677 2.878q.678 1.19 1.786 1.819a4.66 4.66 0 0 0 2.334.629m14.06 3.837v-18.328h4.665v3.871a5.8 5.8 0 0 1 1.323-2.15 6.4 6.4 0 0 1 2.084-1.441 6.1 6.1 0 0 1 2.448-.515c1.39 0 2.606.309 3.658.926q1.569.925 2.433 2.665c.573 1.158.86 2.555.86 4.183v10.785h-4.631v-9.925q0-2.182-1.125-3.422t-2.945-1.242q-1.223-.001-2.15.643-.927.647-1.441 1.768-.512 1.125-.511 2.581v9.593h-4.664zm28.583.231q-1.986.001-3.573-.643-1.588-.644-2.647-1.801a6.64 6.64 0 0 1-1.488-2.58l4.366-.993a3.08 3.08 0 0 0 1.191 1.739q.894.644 2.085.643 1.388 0 2.098-.529.713-.53.713-1.323c0-.53-.249-.978-.746-1.272q-.744-.447-1.918-.728c-.783-.187-1.618-.397-2.496-.629a13.6 13.6 0 0 1-2.514-.926 5.1 5.1 0 0 1-1.934-1.588c-.496-.672-.746-1.573-.746-2.694 0-.993.29-1.908.878-2.746q.877-1.257 2.496-1.985 1.621-.728 3.871-.728 1.952 0 3.44.596 1.49.597 2.448 1.705a6.1 6.1 0 0 1 1.324 2.595l-4.235 1.125c-.198-.772-.548-1.36-1.04-1.771q-.746-.613-2.066-.614c-.878 0-1.477.161-1.919.478q-.661.48-.661 1.275c0 .529.25.974.746 1.272q.744.446 1.919.761 1.173.314 2.496.661 1.325.347 2.495.941a5.3 5.3 0 0 1 1.919 1.621q.743 1.026.743 2.713 0 1.488-.894 2.727-.893 1.242-2.514 1.971-1.62.727-3.837.727m10.884-.231v-24.481h4.664v13.564a8.9 8.9 0 0 0 3.143-1.305 9.5 9.5 0 0 0 2.581-2.529q1.091-1.556 1.521-3.573h4.963a13.1 13.1 0 0 1-1.702 3.937 15 15 0 0 1-2.728 3.176q-1.554 1.356-3.242 2.018 1.29.364 2.581 1.242 1.29.876 2.415 2.117a13.5 13.5 0 0 1 1.918 2.728 10 10 0 0 1 1.059 3.109h-4.962a8.8 8.8 0 0 0-1.092-2.76 10.4 10.4 0 0 0-1.772-2.184 9.2 9.2 0 0 0-2.216-1.536 7.2 7.2 0 0 0-2.467-.728v7.212h-4.664zm45.525-9.02a5.9 5.9 0 0 0-1.886-2.085 5 5 0 0 0-1.889-.782 7 7 0 0 0 1.294-.556 5.15 5.15 0 0 0 1.918-1.852q.729-1.19.728-2.845c0-1.103-.294-2.165-.875-3.058q-.876-1.34-2.547-2.118-1.671-.776-4.087-.775h-9.561v23.091h9.958q2.413 0 4.12-.794 1.704-.794 2.614-2.217.909-1.422.908-3.242a5.7 5.7 0 0 0-.695-2.76zm-12.24-10.307h4.201q1.62 0 2.529.761.909.76.908 2.117-.002 1.422-.908 2.15-.912.728-2.529.728h-4.201zm7.278 14.736q-.927.778-2.614.779h-4.664v-6.186h4.565q1.655-.001 2.646.842.993.842.993 2.33c0 .992-.309 1.717-.926 2.235m17.867 4.815q-2.647 0-4.749-1.158-2.1-1.158-3.341-3.275t-1.242-4.996q0-2.876 1.257-4.977a8.6 8.6 0 0 1 3.407-3.242q2.151-1.142 4.797-1.143 2.645.001 4.778 1.143a8.64 8.64 0 0 1 3.39 3.242q1.257 2.1 1.257 4.977c0 1.919-.427 3.584-1.272 4.996a8.77 8.77 0 0 1-3.441 3.275q-2.168 1.158-4.848 1.158zm0-4.069q1.224.001 2.316-.581 1.092-.58 1.786-1.787.695-1.206.695-2.992-.002-1.786-.676-2.977-.679-1.19-1.753-1.768a4.8 4.8 0 0 0-2.302-.581q-1.223.001-2.264.581-1.042.581-1.705 1.768-.662 1.19-.662 2.977 0 1.789.629 2.992.63 1.208 1.668 1.787a4.6 4.6 0 0 0 2.268.581m12.567-1.092v-19.551h4.665v19.253q0 .729.43 1.092t1.026.364q.43 0 .727-.132l.861 3.539q-1.159.596-2.647.596a5.9 5.9 0 0 1-2.397-.511q-1.174-.513-1.918-1.654-.744-1.14-.743-2.996zm13.638-15.614q-1.39 0-2.316-.842a2.72 2.72 0 0 1-.926-2.099q0-1.257.926-2.117.925-.86 2.316-.86t2.315.86q.927.86.927 2.117a2.72 2.72 0 0 1-.927 2.099q-.926.843-2.315.842m-2.382 20.544V218.66h4.697v18.328zm32.016-4.93v-19.551h4.664v19.253q0 .729.43 1.092t1.026.364q.43 0 .728-.132l.86 3.539q-1.158.596-2.647.596a5.9 5.9 0 0 1-2.4-.511q-1.175-.513-1.919-1.654-.745-1.14-.746-2.996zm17.599 5.161q-2.415 0-4.267-1.206-1.853-1.207-2.912-3.341-1.058-2.132-1.058-4.845c0-1.808.353-3.451 1.058-4.863q1.06-2.115 2.912-3.322 1.852-1.209 4.267-1.21 2.184 0 3.805 1.125t2.348 3.11v-4.003h4.698v18.327h-2.25q-1.124.001-1.786-.676-.662-.676-.662-1.805v-1.555q-.728 2.018-2.348 3.143-1.621 1.125-3.805 1.125zm1.323-4.069q1.291 0 2.382-.629 1.091-.628 1.768-1.819.679-1.19.68-2.878c0-1.125-.228-2.117-.68-2.911q-.677-1.19-1.768-1.805a4.8 4.8 0 0 0-2.382-.614 4.75 4.75 0 0 0-2.33.614q-1.108.613-1.786 1.805-.678 1.19-.677 2.911c0 1.147.224 2.084.677 2.878q.678 1.19 1.786 1.819a4.65 4.65 0 0 0 2.33.629m4.466-19.882q0 1.753-1.143 2.779-1.143 1.025-2.76 1.025c-1.077 0-1.97-.342-2.728-1.025q-1.142-1.026-1.143-2.779.002-1.753 1.143-2.779 1.14-1.026 2.728-1.026c1.058 0 2.003.342 2.76 1.026q1.142 1.026 1.143 2.779m-2.315-.033q0-.728-.463-1.191a1.53 1.53 0 0 0-1.125-.463c-.441 0-.79.154-1.107.463q-.48.463-.481 1.191t.481 1.191q.48.462 1.107.463.661 0 1.125-.463.463-.464.463-1.191m11.542 23.752V218.66h4.665v3.871a5.85 5.85 0 0 1 1.323-2.151 6.4 6.4 0 0 1 2.084-1.441 6.15 6.15 0 0 1 2.448-.514q2.083 0 3.654.926c1.047.618 1.856 1.503 2.433 2.665.573 1.158.86 2.555.86 4.183v10.785h-4.631v-9.925q0-2.182-1.125-3.422t-2.944-1.242q-1.224-.001-2.151.643-.927.647-1.441 1.768-.513 1.125-.514 2.58v9.594h-4.665zm-42.893 2.956h-5.701c-1.705 0-2.907-.698-2.907-2.055 0-.599.308-1.18.72-1.617 1.298.632 2.742.952 4.341.952 1.787 0 3.4-.386 4.849-1.158a8.8 8.8 0 0 0 3.44-3.275q1.273-2.118 1.272-4.995t-1.257-4.977a9 9 0 0 0-.427-.644c1.456-.919 2.228-2.091 2.228-3.591 0-.658-.154-1.397-.467-2.132h-4.187c.272.621.39 1.125.39 1.629 0 .595-.202 1.165-.647 1.657a6 6 0 0 0-.276-.158q-2.135-1.142-4.778-1.143c-1.761 0-3.363.382-4.797 1.143a8.6 8.6 0 0 0-3.407 3.242q-1.257 2.1-1.257 4.977c0 1.919.411 3.584 1.242 4.996q.32.541.695 1.021c-1.324 1.088-2.474 2.732-2.474 4.974 0 3.569 2.793 5.388 6.513 5.388h4.305c2.948 0 3.646 1.28 3.646 2.522 0 .893-.426 1.823-1.048 2.444l4.54 1.202c1.32-1.474 2.018-3.297 2.018-5.002 0-2.871-2.095-5.393-6.554-5.393zm-7.45-15.129q.662-1.19 1.705-1.769a4.6 4.6 0 0 1 2.264-.58q1.222.001 2.301.58 1.076.58 1.754 1.769t.676 2.977q0 1.788-.695 2.992-.694 1.207-1.786 1.786-1.092.58-2.316.581a4.57 4.57 0 0 1-2.268-.581c-.694-.386-1.253-.981-1.668-1.786q-.63-1.206-.629-2.992 0-1.787.662-2.977"/>
</svg>
