<svg xmlns="http://www.w3.org/2000/svg" fill="none" width="688" height="256" viewBox="0 0 688 256">
  <path fill="#00382D" d="M688 204.543h-79.2v17.043H688zm0 34.093h-79.2v17.043H688zM140.05 0H46.3v17.043h93.75zm0 34.093H46.3v17.043h93.75zm0 34.086H46.3v17.043h93.75zm0 34.092H46.3v17.043h93.75zm0 34.093H46.3v17.043h93.75zm0 34.093H46.3V187.5h93.75zM233.8 17.043h-93.75v17.043h93.75zm0 34.093h-93.75v17.043h93.75zm0 34.093h-93.75v17.042h93.75zm0 34.092h-93.75v17.043h93.75zm0 34.086h-93.75v17.043h93.75zm375 34.093h-93.75v17.043h93.75zm0 34.093h-93.75v17.043h93.75zm-93.75-17.05H421.3v17.043h93.75zm0 34.093H421.3v17.043h93.75zM327.55 0H233.8v17.043h93.75zm0 34.093H233.8v17.043h93.75zm0 34.086H233.8v17.043h93.75zm0 34.092H233.8v17.043h93.75zm0 34.093H233.8v17.043h93.75zm0 34.093H233.8V187.5h93.75zM421.3 17.043h-93.75v17.043h93.75zm0 34.093h-93.75v17.043h93.75zm0 34.093h-93.75v17.042h93.75zm0 34.092h-93.75v17.043h93.75zm0 34.086h-93.75v17.043h93.75zm0 34.093h-93.75v17.043h93.75zm0 34.093h-93.75v17.043h93.75zm-93.75-17.05H233.8v17.043h93.75zm0 34.093H233.8v17.043h93.75zM515.05 0H421.3v17.043h93.75zm0 34.093H421.3v17.043h93.75zm0 34.086H421.3v17.043h93.75zm0 34.092H421.3v17.043h93.75zm0 34.093H421.3v17.043h93.75zm0 34.093H421.3V187.5h93.75zM608.8 17.043h-93.75v17.043h93.75zm0 34.093h-93.75v17.043h93.75zm0 34.093h-93.75v17.042h93.75zm0 34.092h-93.75v17.043h93.75zm0 34.086h-93.75v17.043h93.75zM46.3 187.5H0v17.043h46.3zm0 34.093H0v17.043h46.3zm0-204.55H0v17.043h46.3zm0 34.093H0v17.043h46.3zm0 34.093H0v17.042h46.3zm0 34.092H0v17.043h46.3zm0 34.086H0v17.043h46.3zM233.8 187.5h-93.75v17.043h93.75zm0 34.093h-93.75v17.043h93.75zm-93.75-17.05H46.3v17.043h93.75zm0 34.093H46.3v17.043h93.75zM688 0h-79.2v17.043H688zm0 34.093h-79.2v17.043H688zm0 34.086h-79.2v17.043H688zm0 34.092h-79.2v17.043H688zm0 34.093h-79.2v17.043H688zm0 34.093h-79.2V187.5H688z"/>
  <path fill="#00382D" d="M421.3 119.314h-375v136.365h375z"/>
  <path fill="#FDFFE6" d="M140 189.244v-25.518h8.921q4.094 0 7.109 1.572 3.013 1.571 4.699 4.46 1.683 2.888 1.682 6.763 0 3.876-1.682 6.727-1.683 2.852-4.699 4.424c-2.011 1.048-4.384 1.572-7.109 1.572zm5.155-4.387h3.583q4.02 0 6.195-2.194t2.177-6.142q-.001-3.948-2.177-6.215c-1.45-1.511-3.518-2.266-6.195-2.266h-3.583zm28.882 4.643q-2.669 0-4.716-1.332-2.047-1.335-3.217-3.693t-1.17-5.354c0-1.998.39-3.814 1.17-5.374q1.17-2.34 3.217-3.672 2.047-1.336 4.716-1.337 2.413 0 4.205 1.243 1.791 1.244 2.595 3.437v-4.424h5.192v20.254h-2.486q-1.243 0-1.975-.747c-.487-.5-.731-1.162-.731-1.995v-1.718q-.804 2.23-2.595 3.473t-4.205 1.243zm1.463-4.497q1.425 0 2.632-.694 1.204-.695 1.958-2.011.748-1.317.747-3.181c0-1.243-.252-2.34-.747-3.217-.5-.878-1.15-1.54-1.958-1.995a5.3 5.3 0 0 0-2.632-.678c-.951 0-1.763.227-2.58.678q-1.224.677-1.974 1.995-.749 1.316-.748 3.217c0 1.268.248 2.303.748 3.181q.75 1.316 1.974 2.011a5.15 5.15 0 0 0 2.58.694m15.537 4.241V168.99h5.155v4.278a6.5 6.5 0 0 1 1.463-2.376 7.1 7.1 0 0 1 2.303-1.593 6.8 6.8 0 0 1 2.705-.569c1.536 0 2.88.342 4.042 1.024q1.735 1.023 2.689 2.945.951 1.921.951 4.623v11.918h-5.118v-10.967q0-2.412-1.243-3.782-1.244-1.372-3.254-1.373-1.353-.001-2.377.711c-.682.475-1.214 1.129-1.592 1.953q-.566 1.244-.565 2.852v10.602h-5.155zm31.588.257q-2.194 0-3.949-.711-1.754-.712-2.924-1.99-1.17-1.28-1.646-2.852l4.826-1.097a3.4 3.4 0 0 0 1.316 1.922q.988.711 2.304.71 1.534 0 2.319-.585.787-.585.788-1.462c0-.585-.276-1.08-.824-1.405q-.823-.494-2.121-.805-1.3-.31-2.758-.694a15 15 0 0 1-2.779-1.024c-.877-.427-1.592-1.012-2.136-1.755-.549-.743-.825-1.739-.825-2.977 0-1.097.321-2.109.971-3.035q.968-1.389 2.758-2.194 1.792-.804 4.278-.804 2.157 0 3.802.658 1.645.66 2.705 1.885a6.76 6.76 0 0 1 1.463 2.868l-4.68 1.243q-.33-1.278-1.15-1.958c-.548-.451-1.312-.678-2.282-.678-.971 0-1.633.178-2.121.528q-.73.53-.731 1.409c0 .585.276 1.077.824 1.406q.824.493 2.121.841 1.297.347 2.758.731 1.465.383 2.758 1.04a5.9 5.9 0 0 1 2.121 1.791q.821 1.134.82 2.998 0 1.644-.987 3.014-.987 1.372-2.778 2.178-1.792.804-4.241.804m12.028-.256V162.19h5.155v14.99a9.8 9.8 0 0 0 3.473-1.442q1.645-1.077 2.852-2.795 1.206-1.719 1.681-3.948h5.484a14.5 14.5 0 0 1-1.88 4.35 16.6 16.6 0 0 1-3.015 3.51q-1.718 1.499-3.582 2.23 1.425.403 2.851 1.373 1.426.969 2.669 2.34a15 15 0 0 1 2.121 3.014 11 11 0 0 1 1.17 3.437h-5.484a9.7 9.7 0 0 0-1.207-3.051 11.5 11.5 0 0 0-1.958-2.413 10.1 10.1 0 0 0-2.449-1.698 8 8 0 0 0-2.726-.804v7.97h-5.155zm-75.971 22.943a6.5 6.5 0 0 0-2.084-2.304 5.5 5.5 0 0 0-2.088-.865 8 8 0 0 0 1.43-.613 5.7 5.7 0 0 0 2.121-2.048q.804-1.316.804-3.144c0-1.218-.325-2.392-.967-3.379q-.969-1.48-2.815-2.34-1.847-.858-4.517-.857H140v25.518h11.005q2.667 0 4.553-.877 1.883-.878 2.889-2.45 1.004-1.572 1.003-3.582a6.26 6.26 0 0 0-.768-3.051zm-13.527-11.391h4.643q1.79 0 2.795.841t1.003 2.34q-.002 1.572-1.003 2.376c-.67.537-1.605.805-2.795.805h-4.643zm8.043 16.286q-1.023.86-2.888.861h-5.155v-6.837h5.045q1.828 0 2.925.93 1.097.932 1.097 2.576c0 1.097-.341 1.897-1.024 2.47m19.746 5.322q-2.925 0-5.248-1.28-2.322-1.28-3.692-3.619-1.372-2.34-1.373-5.521 0-3.179 1.389-5.5a9.5 9.5 0 0 1 3.765-3.583q2.377-1.262 5.302-1.263 2.923 0 5.28 1.263a9.53 9.53 0 0 1 3.746 3.583q1.389 2.321 1.389 5.5-.002 3.18-1.405 5.521a9.7 9.7 0 0 1-3.803 3.619q-2.395 1.28-5.358 1.28zm0-4.497q1.353.001 2.56-.642 1.206-.64 1.974-1.974t.768-3.307q-.002-1.974-.748-3.29-.75-1.316-1.938-1.954a5.3 5.3 0 0 0-2.542-.642q-1.352 0-2.503.642-1.152.641-1.885 1.954-.73 1.316-.731 3.29 0 1.976.695 3.307.696 1.334 1.844 1.974a5.1 5.1 0 0 0 2.506.642m13.889-1.208v-21.606h5.155v21.277q0 .805.475 1.207a1.7 1.7 0 0 0 1.134.402q.475 0 .804-.146l.95 3.912q-1.28.657-2.924.658a6.5 6.5 0 0 1-2.649-.565q-1.298-.567-2.12-1.828-.822-1.26-.821-3.311zm69.356-24.435c1.021 0 1.933.337 2.663 1.01q1.102 1.011 1.103 2.74-.001 1.728-1.103 2.739t-2.663 1.011c-1.039 0-1.901-.337-2.632-1.011q-1.102-1.011-1.102-2.739t1.102-2.74q1.1-1.01 2.632-1.01m0 2.087c-.425 0-.762.152-1.067.457q-.464.456-.465 1.173t.465 1.174q.461.456 1.067.456.638 0 1.085-.456t.446-1.174q0-.717-.446-1.173a1.46 1.46 0 0 0-1.085-.457m-51.675 4.402q1.102-1.011 1.103-2.739-.001-1.73-1.103-2.739c-.73-.674-1.642-1.011-2.663-1.011q-1.53 0-2.631 1.011-1.102 1.01-1.103 2.739.001 1.728 1.103 2.739c.73.674 1.592 1.011 2.631 1.011q1.56 0 2.663-1.011m-5.243 23.395v-20.254h5.192v20.254zm35.382-5.449v-21.606h5.155v21.277q0 .805.475 1.207a1.7 1.7 0 0 0 1.134.402q.475 0 .804-.146l.95 3.912q-1.28.657-2.924.658a6.6 6.6 0 0 1-2.653-.565q-1.298-.567-2.12-1.828-.824-1.26-.825-3.311zm19.45 5.704q-2.67.001-4.716-1.332-2.048-1.334-3.218-3.693-1.17-2.357-1.17-5.353c0-1.999.39-3.815 1.17-5.375q1.17-2.339 3.218-3.672 2.046-1.336 4.716-1.336 2.412 0 4.204 1.243t2.596 3.436v-4.424h5.191v20.255h-2.486q-1.243.001-1.974-.748-.73-.748-.731-1.994v-1.719q-.804 2.23-2.596 3.473t-4.204 1.243zm1.462-4.496q1.426 0 2.632-.695 1.207-.694 1.954-2.011.751-1.316.752-3.181c0-1.243-.252-2.339-.752-3.217-.499-.877-1.149-1.539-1.954-1.994a5.3 5.3 0 0 0-2.632-.679q-1.352.001-2.575.679-1.225.678-1.975 1.994-.748 1.317-.747 3.217c0 1.268.248 2.304.747 3.181q.75 1.317 1.975 2.011a5.14 5.14 0 0 0 2.575.695m15.132 4.24v-20.254h5.155v4.277a6.5 6.5 0 0 1 1.462-2.376 7.1 7.1 0 0 1 2.303-1.593 6.8 6.8 0 0 1 2.706-.568q2.302 0 4.037 1.023c1.158.683 2.052 1.662 2.69 2.946.633 1.279.95 2.823.95 4.622v11.919h-5.118v-10.968q0-2.412-1.243-3.782-1.243-1.372-3.254-1.373-1.353 0-2.376.711-1.025.714-1.593 1.954-.567 1.242-.568 2.851v10.603h-5.155zm-47.402 3.267h-6.3c-1.885 0-3.213-.772-3.213-2.271 0-.662.341-1.304.796-1.788 1.434.699 3.03 1.053 4.797 1.053q2.96 0 5.358-1.28a9.7 9.7 0 0 0 3.802-3.619q1.407-2.34 1.406-5.521 0-3.179-1.389-5.5a10 10 0 0 0-.472-.711c1.609-1.016 2.462-2.311 2.462-3.969 0-.727-.171-1.543-.516-2.356h-4.627c.301.687.431 1.243.431 1.8 0 .658-.223 1.287-.715 1.832q-.153-.094-.305-.175-2.36-1.262-5.281-1.263c-1.945 0-3.716.422-5.301 1.263a9.5 9.5 0 0 0-3.765 3.583q-1.39 2.321-1.39 5.5-.002 3.181 1.373 5.521.354.597.768 1.129c-1.462 1.202-2.734 3.018-2.734 5.496 0 3.944 3.088 5.955 7.199 5.955h4.756c3.258 0 4.03 1.414 4.03 2.787 0 .987-.471 2.015-1.158 2.701l5.017 1.328c1.458-1.628 2.23-3.643 2.23-5.528 0-3.173-2.315-5.959-7.243-5.959zm-8.234-16.72q.732-1.316 1.885-1.954a5.06 5.06 0 0 1 2.502-.642q1.351 0 2.543.642 1.188.641 1.938 1.954.748 1.316.747 3.29 0 1.976-.767 3.307-.768 1.334-1.975 1.974a5.4 5.4 0 0 1-2.559.642 5.05 5.05 0 0 1-2.506-.642q-1.154-.64-1.844-1.974-.696-1.334-.695-3.307 0-1.974.731-3.29"/>
</svg>
