<svg xmlns="http://www.w3.org/2000/svg" width="428" height="150" viewBox="0 0 428 150" fill="none">
  <path fill="#96FAB9" d="M352.051 0h-75v13.636h75zm0 27.274h-75V40.91h75zm0 27.271h-75v13.636h75zm0 27.275h-75v13.635h75zm0 27.27h-75v13.636h75zm0 27.275h-75V150h75zm75-122.729h-75V27.27h75zm0 27.274h-75v13.635h75zm0 27.274h-75v13.635h75zm0 27.271h-75v13.635h75zm0 27.274h-75v13.636h75z"/>
  <path fill="#00382D" d="M0 0h277v150H0z"/>
  <path fill="#96FAB9" d="M63.5 68.95V43.433h8.92q4.094 0 7.11 1.572c2.01 1.048 3.574 2.535 4.7 4.46q1.68 2.889 1.681 6.764 0 3.876-1.682 6.727t-4.7 4.424c-2.01 1.048-4.383 1.572-7.108 1.572zm5.155-4.386h3.583q4.02 0 6.195-2.194t2.177-6.142q-.001-3.948-2.177-6.215c-1.45-1.511-3.518-2.267-6.195-2.267h-3.583zm28.882 4.643q-2.67.001-4.716-1.333t-3.217-3.692q-1.17-2.358-1.17-5.354c0-1.999.39-3.815 1.17-5.375q1.17-2.338 3.217-3.672t4.716-1.336q2.413 0 4.204 1.243 1.792 1.242 2.596 3.436v-4.423h5.192v20.254h-2.486q-1.243.001-1.975-.748c-.487-.5-.731-1.161-.731-1.994v-1.718q-.804 2.23-2.596 3.473-1.79 1.243-4.204 1.243zm1.462-4.497q1.425 0 2.633-.695c.804-.463 1.454-1.133 1.958-2.01q.748-1.317.747-3.181c0-1.243-.252-2.34-.747-3.218-.5-.877-1.15-1.54-1.958-1.994a5.3 5.3 0 0 0-2.633-.678c-.95 0-1.763.227-2.58.678q-1.224.677-1.973 1.994t-.748 3.218c0 1.267.248 2.303.748 3.18q.75 1.317 1.974 2.011a5.15 5.15 0 0 0 2.58.695m15.537 4.24V48.698h5.155v4.277a6.5 6.5 0 0 1 1.462-2.376 7.1 7.1 0 0 1 2.304-1.593 6.8 6.8 0 0 1 2.705-.568c1.536 0 2.88.34 4.042 1.023 1.158.683 2.051 1.662 2.689 2.946q.951 1.922.951 4.622v11.919h-5.119V57.979q0-2.412-1.243-3.782-1.242-1.372-3.253-1.373-1.353 0-2.377.71-1.024.716-1.592 1.955-.566 1.243-.565 2.851v10.603h-5.155zm31.588.257q-2.194 0-3.949-.711-1.755-.712-2.925-1.99a7.35 7.35 0 0 1-1.645-2.852l4.826-1.097a3.4 3.4 0 0 0 1.316 1.921q.987.713 2.304.711 1.534 0 2.319-.585.787-.585.788-1.462c0-.585-.276-1.08-.825-1.406q-.822-.493-2.12-.804c-.865-.207-1.787-.439-2.758-.695a15 15 0 0 1-2.779-1.023c-.877-.427-1.592-1.012-2.136-1.755q-.824-1.118-.825-2.978-.002-1.645.971-3.034.968-1.39 2.758-2.194t4.278-.804q2.157 0 3.802.658 1.644.659 2.705 1.885a6.76 6.76 0 0 1 1.462 2.868l-4.679 1.243c-.219-.853-.605-1.503-1.15-1.958-.548-.451-1.312-.679-2.283-.679s-1.633.18-2.12.529q-.732.53-.731 1.409c0 .585.276 1.076.824 1.406q.824.494 2.121.84 1.297.348 2.758.732 1.464.382 2.758 1.04a5.9 5.9 0 0 1 2.121 1.791q.821 1.133.82 2.998 0 1.644-.987 3.014-.987 1.372-2.778 2.177-1.792.805-4.241.805m12.028-.257V41.898h5.155v14.989a9.8 9.8 0 0 0 3.473-1.442q1.645-1.078 2.852-2.795 1.206-1.718 1.681-3.948h5.484a14.5 14.5 0 0 1-1.88 4.35 16.6 16.6 0 0 1-3.015 3.51q-1.718 1.5-3.582 2.23 1.425.403 2.851 1.373 1.426.969 2.669 2.34a15 15 0 0 1 2.12 3.014 11 11 0 0 1 1.17 3.437h-5.484a9.7 9.7 0 0 0-1.206-3.05 11.6 11.6 0 0 0-1.958-2.414 10.1 10.1 0 0 0-2.449-1.698 8 8 0 0 0-2.726-.804v7.97h-5.155zM82.182 91.894a6.5 6.5 0 0 0-2.084-2.303 5.5 5.5 0 0 0-2.088-.866 8 8 0 0 0 1.43-.613 5.7 5.7 0 0 0 2.12-2.047q.805-1.317.805-3.144c0-1.22-.325-2.393-.967-3.38q-.969-1.48-2.815-2.34-1.847-.858-4.517-.857H63.5v25.519h11.004c1.78 0 3.295-.293 4.554-.878q1.883-.877 2.888-2.45 1.005-1.571 1.004-3.582a6.3 6.3 0 0 0-.768-3.05zm-13.527-11.39h4.643q1.79 0 2.795.84 1.004.841 1.003 2.34-.002 1.572-1.003 2.377c-.67.536-1.605.804-2.795.804h-4.643zm8.043 16.285q-1.023.86-2.888.861h-5.155v-6.837H73.7q1.828 0 2.925.93 1.097.933 1.097 2.576c0 1.097-.341 1.897-1.024 2.47m19.746 5.321q-2.925 0-5.248-1.279-2.322-1.28-3.693-3.62-1.372-2.34-1.373-5.52t1.39-5.5a9.5 9.5 0 0 1 3.765-3.583q2.378-1.263 5.301-1.264 2.924.001 5.281 1.264a9.54 9.54 0 0 1 3.746 3.583q1.389 2.32 1.389 5.5-.002 3.18-1.406 5.52a9.7 9.7 0 0 1-3.802 3.62q-2.395 1.28-5.358 1.279zm0-4.496a5.34 5.34 0 0 0 2.56-.642q1.206-.64 1.974-1.975.767-1.333.767-3.306-.002-1.974-.747-3.29-.75-1.316-1.938-1.954a5.3 5.3 0 0 0-2.543-.642q-1.35.001-2.502.641-1.153.642-1.885 1.954-.73 1.317-.731 3.29c0 1.317.232 2.422.695 3.307q.696 1.335 1.844 1.975a5.07 5.07 0 0 0 2.506.642m13.889-1.207V74.8h5.155v21.278q0 .804.475 1.206.476.403 1.133.403.475 0 .805-.147l.95 3.912q-1.28.658-2.924.658a6.55 6.55 0 0 1-2.649-.564q-1.298-.567-2.12-1.828-.822-1.26-.821-3.311zm15.071-17.257q-1.536.002-2.56-.93-1.023-.93-1.023-2.319t1.023-2.34q1.024-.95 2.56-.95 1.535 0 2.559.95 1.023.951 1.023 2.34t-1.023 2.32q-1.025.93-2.559.93m-2.633 22.704V81.6h5.192v20.254zm35.382-5.448V74.8h5.155v21.278q0 .804.475 1.206.476.403 1.133.403.475 0 .805-.147l.95 3.912q-1.28.658-2.924.658a6.6 6.6 0 0 1-2.653-.564q-1.298-.567-2.121-1.828-.823-1.26-.824-3.311zm19.45 5.703q-2.67.001-4.717-1.332-2.046-1.334-3.217-3.693-1.17-2.357-1.17-5.354c0-1.998.39-3.814 1.17-5.374q1.17-2.338 3.217-3.672 2.047-1.336 4.717-1.337 2.412 0 4.204 1.243 1.79 1.245 2.596 3.437v-4.424h5.191v20.254h-2.486q-1.243.002-1.974-.747c-.488-.5-.731-1.162-.731-1.995v-1.718q-.805 2.23-2.596 3.473-1.792 1.243-4.204 1.243zm1.462-4.496a5.2 5.2 0 0 0 2.632-.695q1.207-.694 1.954-2.011.751-1.316.752-3.18c0-1.244-.252-2.34-.752-3.218q-.748-1.314-1.954-1.994a5.3 5.3 0 0 0-2.632-.679q-1.352.001-2.575.679-1.225.677-1.975 1.994-.748 1.316-.747 3.217c0 1.268.248 2.304.747 3.181q.75 1.316 1.975 2.01a5.14 5.14 0 0 0 2.575.695m4.936-21.973q-.001 1.938-1.264 3.071t-3.05 1.133c-1.191 0-2.178-.377-3.015-1.133q-1.262-1.134-1.263-3.07 0-1.939 1.263-3.072 1.26-1.133 3.015-1.133c1.169 0 2.213.378 3.05 1.133q1.263 1.134 1.264 3.071m-2.56-.036q0-.805-.511-1.317a1.7 1.7 0 0 0-1.243-.511c-.488 0-.874.17-1.223.511q-.532.512-.532 1.317c0 .536.174.974.532 1.316q.528.511 1.223.512.73 0 1.243-.512.511-.512.511-1.316m12.755 26.25V81.6h5.155v4.278a6.5 6.5 0 0 1 1.463-2.377 7.1 7.1 0 0 1 2.303-1.592 6.8 6.8 0 0 1 2.705-.569q2.303 0 4.038 1.024c1.158.682 2.052 1.661 2.689 2.945q.951 1.921.951 4.623v11.918h-5.118V90.882q0-2.412-1.243-3.782t-3.254-1.372q-1.353-.001-2.377.71-1.024.716-1.592 1.954-.568 1.244-.569 2.852v10.602h-5.155zm-47.401 3.266h-6.301c-1.884 0-3.213-.771-3.213-2.27 0-.663.342-1.304.796-1.788q2.15 1.05 4.798 1.052c1.974 0 3.757-.426 5.358-1.279a9.7 9.7 0 0 0 3.802-3.62q1.407-2.34 1.406-5.52 0-3.18-1.39-5.5a10 10 0 0 0-.471-.711c1.609-1.016 2.462-2.312 2.462-3.969 0-.727-.171-1.544-.516-2.356h-4.627c.301.686.431 1.243.431 1.8 0 .658-.224 1.287-.715 1.832q-.153-.094-.305-.175-2.36-1.262-5.281-1.263c-2.921-.001-3.717.422-5.301 1.263a9.5 9.5 0 0 0-3.765 3.583q-1.39 2.32-1.39 5.5-.002 3.18 1.373 5.52.354.599.768 1.13c-1.462 1.202-2.734 3.018-2.734 5.496 0 3.944 3.087 5.955 7.198 5.955h4.757c3.258 0 4.03 1.414 4.03 2.787 0 .987-.471 2.014-1.158 2.701l5.017 1.328c1.458-1.629 2.23-3.643 2.23-5.528 0-3.173-2.315-5.96-7.243-5.96zm-8.234-16.72q.732-1.314 1.885-1.954a5.06 5.06 0 0 1 2.502-.641 5.3 5.3 0 0 1 2.543.641q1.188.642 1.938 1.954.748 1.317.747 3.29 0 1.977-.768 3.307-.768 1.335-1.974 1.975a5.4 5.4 0 0 1-2.559.642 5.05 5.05 0 0 1-2.506-.642c-.768-.427-1.386-1.085-1.845-1.975q-.694-1.333-.694-3.306t.731-3.29"/>
</svg>
