<svg xmlns="http://www.w3.org/2000/svg" width="938" height="228" viewBox="0 0 938 228" fill="none">
  <path fill="#FDFFE6" d="M402 126.146h134v25.33H402zm268 0h134v25.33H670zm134-25.331h134v25.33H804zM804 0h134v25.33H804zM670 24.825h134v25.33H670zm-134 25.33h134v25.33H536zM402 176.806h134v25.331H402zm268 0h134v25.331H670zm134-25.331h134v25.331H804zm0 50.672h134v25.331H804zm0-151.487h134v25.331H804zM670 75.485h134v25.33H670zm-134 25.33h134v25.331H536zm0 50.66h134v25.331H536z"/>
  <path fill="#FDFFE6" d="M536 151.475h134v25.331H536zm0 50.672h134v25.331H536zm-268-50.672h134v25.331H268zm0 50.672h134v25.331H268zm-134-25.341h134v25.331H134zM0 202.137h134v25.33H0z"/>
</svg>
